<?xml version="1.0" encoding="UTF-8" standalone="no"?>
<!DOCTYPE svg PUBLIC "-//W3C//DTD SVG 1.1//EN"
 "http://www.w3.org/Graphics/SVG/1.1/DTD/svg11.dtd">
<!-- Generated by graphviz version 14.1.1 (20251213.1925)
 -->
<!-- Title: dependency&#45;cruiser output Pages: 1 -->
<svg width="1166pt" height="1288pt"
 viewBox="0.00 0.00 1166.00 1288.00" xmlns="http://www.w3.org/2000/svg" xmlns:xlink="http://www.w3.org/1999/xlink">
<g id="graph0" class="graph" transform="scale(1 1) rotate(0) translate(4 1284.34)">
<title>dependency&#45;cruiser output</title>
<polygon fill="white" stroke="none" points="-4,4 -4,-1284.34 1161.88,-1284.34 1161.88,4 -4,4"/>
<g id="clust1" class="cluster">
<title>cluster_assert</title>
<path fill="#ffffff" stroke="black" stroke-width="2" d="M556.5,-292.34C556.5,-292.34 602.5,-292.34 602.5,-292.34 608.5,-292.34 614.5,-298.34 614.5,-304.34 614.5,-304.34 614.5,-333.34 614.5,-333.34 614.5,-339.34 608.5,-345.34 602.5,-345.34 602.5,-345.34 556.5,-345.34 556.5,-345.34 550.5,-345.34 544.5,-339.34 544.5,-333.34 544.5,-333.34 544.5,-304.34 544.5,-304.34 544.5,-298.34 550.5,-292.34 556.5,-292.34"/>
<text xml:space="preserve" text-anchor="middle" x="579.5" y="-332.79" font-family="Helvetica,sans-Serif" font-weight="bold" font-size="9.00">assert</text>
</g>
<g id="clust2" class="cluster">
<title>cluster_node_modules</title>
<path fill="#ffffff" stroke="black" stroke-width="2" d="M762.25,-217.34C762.25,-217.34 817.25,-217.34 817.25,-217.34 823.25,-217.34 829.25,-223.34 829.25,-229.34 829.25,-229.34 829.25,-258.34 829.25,-258.34 829.25,-264.34 823.25,-270.34 817.25,-270.34 817.25,-270.34 762.25,-270.34 762.25,-270.34 756.25,-270.34 750.25,-264.34 750.25,-258.34 750.25,-258.34 750.25,-229.34 750.25,-229.34 750.25,-223.34 756.25,-217.34 762.25,-217.34"/>
<text xml:space="preserve" text-anchor="middle" x="789.75" y="-257.79" font-family="Helvetica,sans-Serif" font-weight="bold" font-size="9.00">node_modules</text>
</g>
<g id="clust3" class="cluster">
<title>cluster_packages</title>
<path fill="#ffffff" stroke="black" stroke-width="2" d="M20,-407.34C20,-407.34 1137.88,-407.34 1137.88,-407.34 1143.88,-407.34 1149.88,-413.34 1149.88,-419.34 1149.88,-419.34 1149.88,-1260.34 1149.88,-1260.34 1149.88,-1266.34 1143.88,-1272.34 1137.88,-1272.34 1137.88,-1272.34 20,-1272.34 20,-1272.34 14,-1272.34 8,-1266.34 8,-1260.34 8,-1260.34 8,-419.34 8,-419.34 8,-413.34 14,-407.34 20,-407.34"/>
<text xml:space="preserve" text-anchor="middle" x="578.94" y="-1259.79" font-family="Helvetica,sans-Serif" font-weight="bold" font-size="9.00">packages</text>
</g>
<g id="clust4" class="cluster">
<title>cluster_packages/contracts</title>
<path fill="#ffffff" stroke="black" stroke-width="2" d="M659.75,-1108.34C659.75,-1108.34 1129.88,-1108.34 1129.88,-1108.34 1135.88,-1108.34 1141.88,-1114.34 1141.88,-1120.34 1141.88,-1120.34 1141.88,-1233.34 1141.88,-1233.34 1141.88,-1239.34 1135.88,-1245.34 1129.88,-1245.34 1129.88,-1245.34 659.75,-1245.34 659.75,-1245.34 653.75,-1245.34 647.75,-1239.34 647.75,-1233.34 647.75,-1233.34 647.75,-1120.34 647.75,-1120.34 647.75,-1114.34 653.75,-1108.34 659.75,-1108.34"/>
<text xml:space="preserve" text-anchor="middle" x="894.81" y="-1232.79" font-family="Helvetica,sans-Serif" font-weight="bold" font-size="9.00">contracts</text>
</g>
<g id="clust5" class="cluster">
<title>cluster_packages/contracts/src</title>
<path fill="#ffffff" stroke="black" stroke-width="2" d="M667.75,-1116.34C667.75,-1116.34 1121.88,-1116.34 1121.88,-1116.34 1127.88,-1116.34 1133.88,-1122.34 1133.88,-1128.34 1133.88,-1128.34 1133.88,-1206.34 1133.88,-1206.34 1133.88,-1212.34 1127.88,-1218.34 1121.88,-1218.34 1121.88,-1218.34 667.75,-1218.34 667.75,-1218.34 661.75,-1218.34 655.75,-1212.34 655.75,-1206.34 655.75,-1206.34 655.75,-1128.34 655.75,-1128.34 655.75,-1122.34 661.75,-1116.34 667.75,-1116.34"/>
<text xml:space="preserve" text-anchor="middle" x="894.81" y="-1205.79" font-family="Helvetica,sans-Serif" font-weight="bold" font-size="9.00">src</text>
</g>
<g id="clust6" class="cluster">
<title>cluster_packages/contracts/src/ethics&#45;core</title>
<path fill="#ffffff" stroke="black" stroke-width="2" d="M1000.88,-1131.34C1000.88,-1131.34 1113.88,-1131.34 1113.88,-1131.34 1119.88,-1131.34 1125.88,-1137.34 1125.88,-1143.34 1125.88,-1143.34 1125.88,-1172.34 1125.88,-1172.34 1125.88,-1178.34 1119.88,-1184.34 1113.88,-1184.34 1113.88,-1184.34 1000.88,-1184.34 1000.88,-1184.34 994.88,-1184.34 988.88,-1178.34 988.88,-1172.34 988.88,-1172.34 988.88,-1143.34 988.88,-1143.34 988.88,-1137.34 994.88,-1131.34 1000.88,-1131.34"/>
<text xml:space="preserve" text-anchor="middle" x="1057.38" y="-1171.79" font-family="Helvetica,sans-Serif" font-weight="bold" font-size="9.00">ethics&#45;core</text>
</g>
<g id="clust7" class="cluster">
<title>cluster_packages/contracts/src/web</title>
<path fill="#ffffff" stroke="black" stroke-width="2" d="M675.75,-1124.34C675.75,-1124.34 968.88,-1124.34 968.88,-1124.34 974.88,-1124.34 980.88,-1130.34 980.88,-1136.34 980.88,-1136.34 980.88,-1179.34 980.88,-1179.34 980.88,-1185.34 974.88,-1191.34 968.88,-1191.34 968.88,-1191.34 675.75,-1191.34 675.75,-1191.34 669.75,-1191.34 663.75,-1185.34 663.75,-1179.34 663.75,-1179.34 663.75,-1136.34 663.75,-1136.34 663.75,-1130.34 669.75,-1124.34 675.75,-1124.34"/>
<text xml:space="preserve" text-anchor="middle" x="822.31" y="-1178.79" font-family="Helvetica,sans-Serif" font-weight="bold" font-size="9.00">web</text>
</g>
<g id="clust8" class="cluster">
<title>cluster_packages/web</title>
<path fill="#ffffff" stroke="black" stroke-width="2" d="M28,-415.34C28,-415.34 730.25,-415.34 730.25,-415.34 736.25,-415.34 742.25,-421.34 742.25,-427.34 742.25,-427.34 742.25,-1088.34 742.25,-1088.34 742.25,-1094.34 736.25,-1100.34 730.25,-1100.34 730.25,-1100.34 28,-1100.34 28,-1100.34 22,-1100.34 16,-1094.34 16,-1088.34 16,-1088.34 16,-427.34 16,-427.34 16,-421.34 22,-415.34 28,-415.34"/>
<text xml:space="preserve" text-anchor="middle" x="379.12" y="-1087.79" font-family="Helvetica,sans-Serif" font-weight="bold" font-size="9.00">web</text>
</g>
<g id="clust9" class="cluster">
<title>cluster_packages/web/src</title>
<path fill="#ffffff" stroke="black" stroke-width="2" d="M36,-423.34C36,-423.34 722.25,-423.34 722.25,-423.34 728.25,-423.34 734.25,-429.34 734.25,-435.34 734.25,-435.34 734.25,-1061.34 734.25,-1061.34 734.25,-1067.34 728.25,-1073.34 722.25,-1073.34 722.25,-1073.34 36,-1073.34 36,-1073.34 30,-1073.34 24,-1067.34 24,-1061.34 24,-1061.34 24,-435.34 24,-435.34 24,-429.34 30,-423.34 36,-423.34"/>
<text xml:space="preserve" text-anchor="middle" x="379.12" y="-1060.79" font-family="Helvetica,sans-Serif" font-weight="bold" font-size="9.00">src</text>
</g>
<g id="clust10" class="cluster">
<title>cluster_packages/web/src/components</title>
<path fill="#ffffff" stroke="black" stroke-width="2" d="M299.25,-502.34C299.25,-502.34 627.75,-502.34 627.75,-502.34 633.75,-502.34 639.75,-508.34 639.75,-514.34 639.75,-514.34 639.75,-760.34 639.75,-760.34 639.75,-766.34 633.75,-772.34 627.75,-772.34 627.75,-772.34 299.25,-772.34 299.25,-772.34 293.25,-772.34 287.25,-766.34 287.25,-760.34 287.25,-760.34 287.25,-514.34 287.25,-514.34 287.25,-508.34 293.25,-502.34 299.25,-502.34"/>
<text xml:space="preserve" text-anchor="middle" x="463.5" y="-759.79" font-family="Helvetica,sans-Serif" font-weight="bold" font-size="9.00">components</text>
</g>
<g id="clust11" class="cluster">
<title>cluster_packages/web/src/data</title>
<path fill="#ffffff" stroke="black" stroke-width="2" d="M531.25,-441.34C531.25,-441.34 627.75,-441.34 627.75,-441.34 633.75,-441.34 639.75,-447.34 639.75,-453.34 639.75,-453.34 639.75,-482.34 639.75,-482.34 639.75,-488.34 633.75,-494.34 627.75,-494.34 627.75,-494.34 531.25,-494.34 531.25,-494.34 525.25,-494.34 519.25,-488.34 519.25,-482.34 519.25,-482.34 519.25,-453.34 519.25,-453.34 519.25,-447.34 525.25,-441.34 531.25,-441.34"/>
<text xml:space="preserve" text-anchor="middle" x="579.5" y="-481.79" font-family="Helvetica,sans-Serif" font-weight="bold" font-size="9.00">data</text>
</g>
<g id="clust12" class="cluster">
<title>cluster_packages/web/src/pages</title>
<path fill="#ffffff" stroke="black" stroke-width="2" d="M187.25,-702.34C187.25,-702.34 267.25,-702.34 267.25,-702.34 273.25,-702.34 279.25,-708.34 279.25,-714.34 279.25,-714.34 279.25,-867.34 279.25,-867.34 279.25,-873.34 273.25,-879.34 267.25,-879.34 267.25,-879.34 187.25,-879.34 187.25,-879.34 181.25,-879.34 175.25,-873.34 175.25,-867.34 175.25,-867.34 175.25,-714.34 175.25,-714.34 175.25,-708.34 181.25,-702.34 187.25,-702.34"/>
<text xml:space="preserve" text-anchor="middle" x="227.25" y="-866.79" font-family="Helvetica,sans-Serif" font-weight="bold" font-size="9.00">pages</text>
</g>
<g id="clust13" class="cluster">
<title>cluster_packages/web/src/styles</title>
<path fill="#ffffff" stroke="black" stroke-width="2" d="M106,-993.34C106,-993.34 155.25,-993.34 155.25,-993.34 161.25,-993.34 167.25,-999.34 167.25,-1005.34 167.25,-1005.34 167.25,-1034.34 167.25,-1034.34 167.25,-1040.34 161.25,-1046.34 155.25,-1046.34 155.25,-1046.34 106,-1046.34 106,-1046.34 100,-1046.34 94,-1040.34 94,-1034.34 94,-1034.34 94,-1005.34 94,-1005.34 94,-999.34 100,-993.34 106,-993.34"/>
<text xml:space="preserve" text-anchor="middle" x="130.62" y="-1033.79" font-family="Helvetica,sans-Serif" font-weight="bold" font-size="9.00">styles</text>
</g>
<g id="clust14" class="cluster">
<title>cluster_packages/web/src/types</title>
<path fill="#ffffff" stroke="black" stroke-width="2" d="M556.5,-972.34C556.5,-972.34 602.5,-972.34 602.5,-972.34 608.5,-972.34 614.5,-978.34 614.5,-984.34 614.5,-984.34 614.5,-1013.34 614.5,-1013.34 614.5,-1019.34 608.5,-1025.34 602.5,-1025.34 602.5,-1025.34 556.5,-1025.34 556.5,-1025.34 550.5,-1025.34 544.5,-1019.34 544.5,-1013.34 544.5,-1013.34 544.5,-984.34 544.5,-984.34 544.5,-978.34 550.5,-972.34 556.5,-972.34"/>
<text xml:space="preserve" text-anchor="middle" x="579.5" y="-1012.79" font-family="Helvetica,sans-Serif" font-weight="bold" font-size="9.00">types</text>
</g>
<g id="clust15" class="cluster">
<title>cluster_packages/web/src/utils</title>
<path fill="#ffffff" stroke="black" stroke-width="2" d="M418.25,-806.34C418.25,-806.34 615.75,-806.34 615.75,-806.34 621.75,-806.34 627.75,-812.34 627.75,-818.34 627.75,-818.34 627.75,-940.34 627.75,-940.34 627.75,-946.34 621.75,-952.34 615.75,-952.34 615.75,-952.34 418.25,-952.34 418.25,-952.34 412.25,-952.34 406.25,-946.34 406.25,-940.34 406.25,-940.34 406.25,-818.34 406.25,-818.34 406.25,-812.34 412.25,-806.34 418.25,-806.34"/>
<text xml:space="preserve" text-anchor="middle" x="517" y="-939.79" font-family="Helvetica,sans-Serif" font-weight="bold" font-size="9.00">utils</text>
</g>
<!-- assert/strict -->
<g id="node1" class="node">
<title>assert/strict</title>
<g id="a_node1"><a xlink:href="https://nodejs.org/api/assert.html" xlink:title="strict">
<path fill="#ffffcc" stroke="grey" d="M600.33,-318.59C600.33,-318.59 558.67,-318.59 558.67,-318.59 555.58,-318.59 552.5,-315.51 552.5,-312.43 552.5,-312.43 552.5,-306.26 552.5,-306.26 552.5,-303.18 555.58,-300.09 558.67,-300.09 558.67,-300.09 600.33,-300.09 600.33,-300.09 603.42,-300.09 606.5,-303.18 606.5,-306.26 606.5,-306.26 606.5,-312.43 606.5,-312.43 606.5,-315.51 603.42,-318.59 600.33,-318.59"/>
<text xml:space="preserve" text-anchor="start" x="570.12" y="-306.04" font-family="Helvetica,sans-Serif" font-size="9.00" fill="grey">strict</text>
</a>
</g>
</g>
<!-- node:test -->
<g id="node2" class="node">
<title>node:test</title>
<g id="a_node2"><a xlink:href="https://nodejs.org/api/node:test.html" xlink:title="node:test">
<path fill="#ffffcc" stroke="grey" d="M600.33,-284.59C600.33,-284.59 558.67,-284.59 558.67,-284.59 555.58,-284.59 552.5,-281.51 552.5,-278.43 552.5,-278.43 552.5,-272.26 552.5,-272.26 552.5,-269.18 555.58,-266.09 558.67,-266.09 558.67,-266.09 600.33,-266.09 600.33,-266.09 603.42,-266.09 606.5,-269.18 606.5,-272.26 606.5,-272.26 606.5,-278.43 606.5,-278.43 606.5,-281.51 603.42,-284.59 600.33,-284.59"/>
<text xml:space="preserve" text-anchor="start" x="560.75" y="-272.04" font-family="Helvetica,sans-Serif" font-size="9.00" fill="grey">node:test</text>
</a>
</g>
</g>
<!-- node_modules/.pnpm -->
<g id="node3" class="node">
<title>node_modules/.pnpm</title>
<g id="a_node3"><a xlink:href="https://www.npmjs.com/package/.pnpm" xlink:title=".pnpm">
<polygon fill="#c40b0a" fill-opacity="0.101961" stroke="black" points="816.25,-243.59 764.31,-243.59 762.25,-241.54 762.25,-225.09 814.19,-225.09 816.25,-227.15 816.25,-243.59"/>
<polyline fill="none" stroke="black" points="814.19,-241.54 762.25,-241.54"/>
<polyline fill="none" stroke="black" points="814.19,-241.54 814.19,-225.09"/>
<polyline fill="none" stroke="black" points="814.19,-241.54 816.25,-243.59"/>
<text xml:space="preserve" text-anchor="start" x="776.5" y="-231.04" font-family="Helvetica,sans-Serif" font-size="9.00" fill="#c40b0a">.pnpm</text>
</a>
</g>
</g>
<!-- packages/contracts/src/ethics&#45;core/index.ts -->
<g id="node4" class="node">
<title>packages/contracts/src/ethics&#45;core/index.ts</title>
<g id="a_node4"><a xlink:href="packages/contracts/src/ethics-core/index.ts" xlink:title="index.ts">
<path fill="#ddfeff" stroke="black" d="M1044.71,-1157.59C1044.71,-1157.59 1003.04,-1157.59 1003.04,-1157.59 999.96,-1157.59 996.88,-1154.51 996.88,-1151.43 996.88,-1151.43 996.88,-1145.26 996.88,-1145.26 996.88,-1142.18 999.96,-1139.09 1003.04,-1139.09 1003.04,-1139.09 1044.71,-1139.09 1044.71,-1139.09 1047.79,-1139.09 1050.88,-1142.18 1050.88,-1145.26 1050.88,-1145.26 1050.88,-1151.43 1050.88,-1151.43 1050.88,-1154.51 1047.79,-1157.59 1044.71,-1157.59"/>
<text xml:space="preserve" text-anchor="start" x="1008.12" y="-1145.04" font-family="Helvetica,sans-Serif" font-size="9.00">index.ts</text>
</a>
</g>
</g>
<!-- packages/contracts/src/ethics&#45;core/types.ts -->
<g id="node5" class="node">
<title>packages/contracts/src/ethics&#45;core/types.ts</title>
<g id="a_node5"><a xlink:href="packages/contracts/src/ethics-core/types.ts" xlink:title="types.ts">
<path fill="#ddfeff" stroke="black" d="M1111.71,-1157.59C1111.71,-1157.59 1070.04,-1157.59 1070.04,-1157.59 1066.96,-1157.59 1063.88,-1154.51 1063.88,-1151.43 1063.88,-1151.43 1063.88,-1145.26 1063.88,-1145.26 1063.88,-1142.18 1066.96,-1139.09 1070.04,-1139.09 1070.04,-1139.09 1111.71,-1139.09 1111.71,-1139.09 1114.79,-1139.09 1117.88,-1142.18 1117.88,-1145.26 1117.88,-1145.26 1117.88,-1151.43 1117.88,-1151.43 1117.88,-1154.51 1114.79,-1157.59 1111.71,-1157.59"/>
<text xml:space="preserve" text-anchor="start" x="1075.5" y="-1145.04" font-family="Helvetica,sans-Serif" font-size="9.00">types.ts</text>
</a>
</g>
</g>
<!-- packages/contracts/src/ethics&#45;core/index.ts&#45;&gt;packages/contracts/src/ethics&#45;core/types.ts -->
<g id="edge1" class="edge">
<title>packages/contracts/src/ethics&#45;core/index.ts&#45;&gt;packages/contracts/src/ethics&#45;core/types.ts</title>
<path fill="none" stroke="#000000" stroke-opacity="0.200000" d="M1051.31,-1148.34C1052.97,-1148.34 1054.65,-1148.34 1056.33,-1148.34"/>
<polygon fill="none" stroke="#000000" stroke-opacity="0.200000" points="1056.16,-1150.44 1062.16,-1148.34 1056.16,-1146.24 1056.16,-1150.44"/>
</g>
<!-- packages/contracts/src/web/client&#45;core.ts -->
<g id="node6" class="node">
<title>packages/contracts/src/web/client&#45;core.ts</title>
<g id="a_node6"><a xlink:href="packages/contracts/src/web/client-core.ts" xlink:title="client&#45;core.ts">
<path fill="#ddfeff" stroke="black" d="M899.71,-1150.59C899.71,-1150.59 844.29,-1150.59 844.29,-1150.59 841.21,-1150.59 838.12,-1147.51 838.12,-1144.43 838.12,-1144.43 838.12,-1138.26 838.12,-1138.26 838.12,-1135.18 841.21,-1132.09 844.29,-1132.09 844.29,-1132.09 899.71,-1132.09 899.71,-1132.09 902.79,-1132.09 905.88,-1135.18 905.88,-1138.26 905.88,-1138.26 905.88,-1144.43 905.88,-1144.43 905.88,-1147.51 902.79,-1150.59 899.71,-1150.59"/>
<text xml:space="preserve" text-anchor="start" x="846.12" y="-1138.04" font-family="Helvetica,sans-Serif" font-size="9.00">client&#45;core.ts</text>
</a>
</g>
</g>
<!-- packages/contracts/src/web/types.ts -->
<g id="node7" class="node">
<title>packages/contracts/src/web/types.ts</title>
<g id="a_node7"><a xlink:href="packages/contracts/src/web/types.ts" xlink:title="types.ts">
<path fill="#ddfeff" stroke="black" d="M966.71,-1157.59C966.71,-1157.59 925.04,-1157.59 925.04,-1157.59 921.96,-1157.59 918.88,-1154.51 918.88,-1151.43 918.88,-1151.43 918.88,-1145.26 918.88,-1145.26 918.88,-1142.18 921.96,-1139.09 925.04,-1139.09 925.04,-1139.09 966.71,-1139.09 966.71,-1139.09 969.79,-1139.09 972.88,-1142.18 972.88,-1145.26 972.88,-1145.26 972.88,-1151.43 972.88,-1151.43 972.88,-1154.51 969.79,-1157.59 966.71,-1157.59"/>
<text xml:space="preserve" text-anchor="start" x="930.5" y="-1145.04" font-family="Helvetica,sans-Serif" font-size="9.00">types.ts</text>
</a>
</g>
</g>
<!-- packages/contracts/src/web/client&#45;core.ts&#45;&gt;packages/contracts/src/web/types.ts -->
<g id="edge2" class="edge">
<title>packages/contracts/src/web/client&#45;core.ts&#45;&gt;packages/contracts/src/web/types.ts</title>
<path fill="none" stroke="#000000" stroke-opacity="0.200000" d="M905.99,-1144.56C907.87,-1144.74 909.75,-1144.92 911.62,-1145.1"/>
<polygon fill="none" stroke="#000000" stroke-opacity="0.200000" points="911.08,-1147.16 917.25,-1145.65 911.48,-1142.98 911.08,-1147.16"/>
</g>
<!-- packages/contracts/src/web/types.ts&#45;&gt;packages/contracts/src/ethics&#45;core/index.ts -->
<g id="edge8" class="edge">
<title>packages/contracts/src/web/types.ts&#45;&gt;packages/contracts/src/ethics&#45;core/index.ts</title>
<path fill="none" stroke="#000000" stroke-opacity="0.200000" d="M973.03,-1148.34C978.23,-1148.34 983.75,-1148.34 989.16,-1148.34"/>
<polygon fill="none" stroke="#000000" stroke-opacity="0.200000" points="988.9,-1150.44 994.9,-1148.34 988.9,-1146.24 988.9,-1150.44"/>
</g>
<!-- packages/contracts/src/web/index.ts -->
<g id="node8" class="node">
<title>packages/contracts/src/web/index.ts</title>
<g id="a_node8"><a xlink:href="packages/contracts/src/web/index.ts" xlink:title="index.ts">
<path fill="#ddfeff" stroke="black" d="M719.58,-1150.59C719.58,-1150.59 677.92,-1150.59 677.92,-1150.59 674.83,-1150.59 671.75,-1147.51 671.75,-1144.43 671.75,-1144.43 671.75,-1138.26 671.75,-1138.26 671.75,-1135.18 674.83,-1132.09 677.92,-1132.09 677.92,-1132.09 719.58,-1132.09 719.58,-1132.09 722.67,-1132.09 725.75,-1135.18 725.75,-1138.26 725.75,-1138.26 725.75,-1144.43 725.75,-1144.43 725.75,-1147.51 722.67,-1150.59 719.58,-1150.59"/>
<text xml:space="preserve" text-anchor="start" x="683" y="-1138.04" font-family="Helvetica,sans-Serif" font-size="9.00">index.ts</text>
</a>
</g>
</g>
<!-- packages/contracts/src/web/index.ts&#45;&gt;packages/contracts/src/web/types.ts -->
<g id="edge4" class="edge">
<title>packages/contracts/src/web/index.ts&#45;&gt;packages/contracts/src/web/types.ts</title>
<path fill="none" stroke="#000000" stroke-opacity="0.200000" d="M726.16,-1150.75C733.83,-1153.05 742.29,-1155.18 750.25,-1156.34 818.7,-1166.29 837.06,-1163.33 905.88,-1156.34 907.68,-1156.16 909.53,-1155.93 911.38,-1155.66"/>
<polygon fill="none" stroke="#000000" stroke-opacity="0.200000" points="911.48,-1157.78 917.06,-1154.74 910.8,-1153.63 911.48,-1157.78"/>
</g>
<!-- packages/contracts/src/web/schemas.ts -->
<g id="node9" class="node">
<title>packages/contracts/src/web/schemas.ts</title>
<g id="a_node9"><a xlink:href="packages/contracts/src/web/schemas.ts" xlink:title="schemas.ts">
<path fill="#ddfeff" stroke="black" d="M813.96,-1150.59C813.96,-1150.59 764.54,-1150.59 764.54,-1150.59 761.46,-1150.59 758.38,-1147.51 758.38,-1144.43 758.38,-1144.43 758.38,-1138.26 758.38,-1138.26 758.38,-1135.18 761.46,-1132.09 764.54,-1132.09 764.54,-1132.09 813.96,-1132.09 813.96,-1132.09 817.04,-1132.09 820.12,-1135.18 820.12,-1138.26 820.12,-1138.26 820.12,-1144.43 820.12,-1144.43 820.12,-1147.51 817.04,-1150.59 813.96,-1150.59"/>
<text xml:space="preserve" text-anchor="start" x="766.38" y="-1138.04" font-family="Helvetica,sans-Serif" font-size="9.00">schemas.ts</text>
</a>
</g>
</g>
<!-- packages/contracts/src/web/index.ts&#45;&gt;packages/contracts/src/web/schemas.ts -->
<g id="edge3" class="edge">
<title>packages/contracts/src/web/index.ts&#45;&gt;packages/contracts/src/web/schemas.ts</title>
<path fill="none" stroke="#000000" stroke-width="2" stroke-opacity="0.200000" d="M725.82,-1141.34C733.71,-1141.34 742.53,-1141.34 751,-1141.34"/>
<polygon fill="#000000" fill-opacity="0.200000" stroke="#000000" stroke-width="2" stroke-opacity="0.200000" points="757,-1143.44 751,-1141.34 757,-1139.24 757,-1143.44"/>
</g>
<!-- packages/contracts/src/web/schemas.ts&#45;&gt;node_modules/.pnpm -->
<g id="edge7" class="edge">
<title>packages/contracts/src/web/schemas.ts&#45;&gt;node_modules/.pnpm</title>
<path fill="none" stroke="#000000" stroke-opacity="0.200000" d="M789.25,-1131.7C789.25,-838.29 789.25,-544.87 789.25,-251.45"/>
<polygon fill="#000000" fill-opacity="0.200000" stroke="#000000" stroke-opacity="0.200000" points="791.35,-251.6 789.25,-245.6 787.15,-251.6 791.35,-251.6"/>
</g>
<!-- packages/contracts/src/web/schemas.ts&#45;&gt;packages/contracts/src/ethics&#45;core/index.ts -->
<g id="edge5" class="edge">
<title>packages/contracts/src/web/schemas.ts&#45;&gt;packages/contracts/src/ethics&#45;core/index.ts</title>
<path fill="none" stroke="#000000" stroke-opacity="0.200000" d="M817.58,-1151.03C824.23,-1153.07 831.37,-1155.01 838.12,-1156.34 900.44,-1168.65 918.29,-1174.18 980.88,-1163.34 984.88,-1162.65 989.01,-1161.61 993.04,-1160.39"/>
<polygon fill="none" stroke="#000000" stroke-opacity="0.200000" points="993.67,-1162.4 998.71,-1158.53 992.36,-1158.41 993.67,-1162.4"/>
</g>
<!-- packages/contracts/src/web/schemas.ts&#45;&gt;packages/contracts/src/web/client&#45;core.ts -->
<g id="edge6" class="edge">
<title>packages/contracts/src/web/schemas.ts&#45;&gt;packages/contracts/src/web/client&#45;core.ts</title>
<path fill="none" stroke="#000000" stroke-opacity="0.200000" d="M820.32,-1141.34C823.58,-1141.34 826.95,-1141.34 830.31,-1141.34"/>
<polygon fill="none" stroke="#000000" stroke-opacity="0.200000" points="830.14,-1143.44 836.14,-1141.34 830.14,-1139.24 830.14,-1143.44"/>
</g>
<!-- packages/web/src/App.tsx -->
<g id="node10" class="node">
<title>packages/web/src/App.tsx</title>
<g id="a_node10"><a xlink:href="packages/web/src/App.tsx" xlink:title="App.tsx">
<path fill="#bbfeff" stroke="black" d="M151.46,-713.59C151.46,-713.59 109.79,-713.59 109.79,-713.59 106.71,-713.59 103.62,-710.51 103.62,-707.43 103.62,-707.43 103.62,-701.26 103.62,-701.26 103.62,-698.18 106.71,-695.09 109.79,-695.09 109.79,-695.09 151.46,-695.09 151.46,-695.09 154.54,-695.09 157.62,-698.18 157.62,-701.26 157.62,-701.26 157.62,-707.43 157.62,-707.43 157.62,-710.51 154.54,-713.59 151.46,-713.59"/>
<text xml:space="preserve" text-anchor="start" x="115.62" y="-701.04" font-family="Helvetica,sans-Serif" font-size="9.00">App.tsx</text>
</a>
</g>
</g>
<!-- packages/web/src/App.tsx&#45;&gt;node_modules/.pnpm -->
<g id="edge19" class="edge">
<title>packages/web/src/App.tsx&#45;&gt;node_modules/.pnpm</title>
<path fill="none" stroke="#000000" stroke-opacity="0.200000" d="M133.77,-694.84C140.04,-667.06 158.96,-583.52 175.25,-514.34 226.66,-296.01 121.45,-39.34 345.75,-39.34 345.75,-39.34 345.75,-39.34 580.5,-39.34 652.62,-39.34 687.17,-5.79 742.25,-52.34 767.69,-73.84 781.83,-177.01 786.5,-217.75"/>
<polygon fill="#000000" fill-opacity="0.200000" stroke="#000000" stroke-opacity="0.200000" points="784.39,-217.78 787.14,-223.51 788.56,-217.32 784.39,-217.78"/>
</g>
<!-- packages/web/src/components/Footer.tsx -->
<g id="node11" class="node">
<title>packages/web/src/components/Footer.tsx</title>
<g id="a_node11"><a xlink:href="packages/web/src/components/Footer.tsx" xlink:title="Footer.tsx">
<path fill="#bbfeff" stroke="black" d="M368.08,-652.59C368.08,-652.59 325.42,-652.59 325.42,-652.59 322.33,-652.59 319.25,-649.51 319.25,-646.43 319.25,-646.43 319.25,-640.26 319.25,-640.26 319.25,-637.18 322.33,-634.09 325.42,-634.09 325.42,-634.09 368.08,-634.09 368.08,-634.09 371.17,-634.09 374.25,-637.18 374.25,-640.26 374.25,-640.26 374.25,-646.43 374.25,-646.43 374.25,-649.51 371.17,-652.59 368.08,-652.59"/>
<text xml:space="preserve" text-anchor="start" x="327.25" y="-640.04" font-family="Helvetica,sans-Serif" font-size="9.00">Footer.tsx</text>
</a>
</g>
</g>
<!-- packages/web/src/App.tsx&#45;&gt;packages/web/src/components/Footer.tsx -->
<g id="edge9" class="edge">
<title>packages/web/src/App.tsx&#45;&gt;packages/web/src/components/Footer.tsx</title>
<path fill="none" stroke="#000000" stroke-width="2" stroke-opacity="0.200000" d="M157.84,-701.16C194.83,-696.26 259.99,-685.98 279.25,-672.34 284.79,-668.42 281.82,-663.41 287.25,-659.34 293.93,-654.33 302.09,-650.89 310.17,-648.53"/>
<polygon fill="#000000" fill-opacity="0.200000" stroke="#000000" stroke-width="2" stroke-opacity="0.200000" points="310.58,-650.59 315.89,-647.1 309.56,-646.52 310.58,-650.59"/>
</g>
<!-- packages/web/src/components/Hero.tsx -->
<g id="node12" class="node">
<title>packages/web/src/components/Hero.tsx</title>
<g id="a_node12"><a xlink:href="packages/web/src/components/Hero.tsx" xlink:title="Hero.tsx">
<path fill="#bbfeff" stroke="black" d="M367.58,-621.59C367.58,-621.59 325.92,-621.59 325.92,-621.59 322.83,-621.59 319.75,-618.51 319.75,-615.43 319.75,-615.43 319.75,-609.26 319.75,-609.26 319.75,-606.18 322.83,-603.09 325.92,-603.09 325.92,-603.09 367.58,-603.09 367.58,-603.09 370.67,-603.09 373.75,-606.18 373.75,-609.26 373.75,-609.26 373.75,-615.43 373.75,-615.43 373.75,-618.51 370.67,-621.59 367.58,-621.59"/>
<text xml:space="preserve" text-anchor="start" x="329.88" y="-609.04" font-family="Helvetica,sans-Serif" font-size="9.00">Hero.tsx</text>
</a>
</g>
</g>
<!-- packages/web/src/App.tsx&#45;&gt;packages/web/src/components/Hero.tsx -->
<g id="edge10" class="edge">
<title>packages/web/src/App.tsx&#45;&gt;packages/web/src/components/Hero.tsx</title>
<path fill="none" stroke="#000000" stroke-width="2" stroke-opacity="0.200000" d="M142.8,-694.78C151.24,-687.98 163.37,-679.07 175.25,-673.34 218.58,-652.45 241.87,-673.62 279.25,-643.34 285.12,-638.59 281.35,-633.06 287.25,-628.34 294.03,-622.93 302.5,-619.34 310.88,-616.97"/>
<polygon fill="#000000" fill-opacity="0.200000" stroke="#000000" stroke-width="2" stroke-opacity="0.200000" points="311.21,-619.05 316.55,-615.61 310.23,-614.96 311.21,-619.05"/>
</g>
<!-- packages/web/src/components/Invite.tsx -->
<g id="node13" class="node">
<title>packages/web/src/components/Invite.tsx</title>
<g id="a_node13"><a xlink:href="packages/web/src/components/Invite.tsx" xlink:title="Invite.tsx">
<path fill="#bbfeff" stroke="black" d="M367.58,-528.59C367.58,-528.59 325.92,-528.59 325.92,-528.59 322.83,-528.59 319.75,-525.51 319.75,-522.43 319.75,-522.43 319.75,-516.26 319.75,-516.26 319.75,-513.18 322.83,-510.09 325.92,-510.09 325.92,-510.09 367.58,-510.09 367.58,-510.09 370.67,-510.09 373.75,-513.18 373.75,-516.26 373.75,-516.26 373.75,-522.43 373.75,-522.43 373.75,-525.51 370.67,-528.59 367.58,-528.59"/>
<text xml:space="preserve" text-anchor="start" x="329.12" y="-516.04" font-family="Helvetica,sans-Serif" font-size="9.00">Invite.tsx</text>
</a>
</g>
</g>
<!-- packages/web/src/App.tsx&#45;&gt;packages/web/src/components/Invite.tsx -->
<g id="edge11" class="edge">
<title>packages/web/src/App.tsx&#45;&gt;packages/web/src/components/Invite.tsx</title>
<path fill="none" stroke="#000000" stroke-width="2" stroke-opacity="0.200000" d="M131.25,-694.84C130.75,-668.16 133.26,-591.93 175.25,-553.34 212.08,-519.5 272.67,-515.22 310.83,-516.42"/>
<polygon fill="#000000" fill-opacity="0.200000" stroke="#000000" stroke-width="2" stroke-opacity="0.200000" points="310.44,-518.5 316.53,-516.67 310.62,-514.31 310.44,-518.5"/>
</g>
<!-- packages/web/src/components/OpenAccountable.tsx -->
<g id="node14" class="node">
<title>packages/web/src/components/OpenAccountable.tsx</title>
<g id="a_node14"><a xlink:href="packages/web/src/components/OpenAccountable.tsx" xlink:title="OpenAccountable.tsx">
<path fill="#bbfeff" stroke="black" d="M392.08,-559.59C392.08,-559.59 301.42,-559.59 301.42,-559.59 298.33,-559.59 295.25,-556.51 295.25,-553.43 295.25,-553.43 295.25,-547.26 295.25,-547.26 295.25,-544.18 298.33,-541.09 301.42,-541.09 301.42,-541.09 392.08,-541.09 392.08,-541.09 395.17,-541.09 398.25,-544.18 398.25,-547.26 398.25,-547.26 398.25,-553.43 398.25,-553.43 398.25,-556.51 395.17,-559.59 392.08,-559.59"/>
<text xml:space="preserve" text-anchor="start" x="303.25" y="-547.04" font-family="Helvetica,sans-Serif" font-size="9.00">OpenAccountable.tsx</text>
</a>
</g>
</g>
<!-- packages/web/src/App.tsx&#45;&gt;packages/web/src/components/OpenAccountable.tsx -->
<g id="edge12" class="edge">
<title>packages/web/src/App.tsx&#45;&gt;packages/web/src/components/OpenAccountable.tsx</title>
<path fill="none" stroke="#000000" stroke-width="2" stroke-opacity="0.200000" d="M132.9,-694.75C136.11,-674.32 146.47,-626.32 175.25,-600.34 205.67,-572.89 250.44,-560.46 286.46,-554.86"/>
<polygon fill="#000000" fill-opacity="0.200000" stroke="#000000" stroke-width="2" stroke-opacity="0.200000" points="286.31,-557 291.95,-554.07 285.71,-552.85 286.31,-557"/>
</g>
<!-- packages/web/src/components/Services.tsx -->
<g id="node15" class="node">
<title>packages/web/src/components/Services.tsx</title>
<g id="a_node15"><a xlink:href="packages/web/src/components/Services.tsx" xlink:title="Services.tsx">
<path fill="#bbfeff" stroke="black" d="M372.96,-590.59C372.96,-590.59 320.54,-590.59 320.54,-590.59 317.46,-590.59 314.38,-587.51 314.38,-584.43 314.38,-584.43 314.38,-578.26 314.38,-578.26 314.38,-575.18 317.46,-572.09 320.54,-572.09 320.54,-572.09 372.96,-572.09 372.96,-572.09 376.04,-572.09 379.12,-575.18 379.12,-578.26 379.12,-578.26 379.12,-584.43 379.12,-584.43 379.12,-587.51 376.04,-590.59 372.96,-590.59"/>
<text xml:space="preserve" text-anchor="start" x="322.38" y="-578.04" font-family="Helvetica,sans-Serif" font-size="9.00">Services.tsx</text>
</a>
</g>
</g>
<!-- packages/web/src/App.tsx&#45;&gt;packages/web/src/components/Services.tsx -->
<g id="edge13" class="edge">
<title>packages/web/src/App.tsx&#45;&gt;packages/web/src/components/Services.tsx</title>
<path fill="none" stroke="#000000" stroke-width="2" stroke-opacity="0.200000" d="M136.3,-694.99C143.21,-682.02 157.28,-658.57 175.25,-644.34 217.57,-610.83 236.22,-614.94 287.25,-597.34 293.14,-595.31 299.42,-593.37 305.61,-591.57"/>
<polygon fill="#000000" fill-opacity="0.200000" stroke="#000000" stroke-width="2" stroke-opacity="0.200000" points="305.82,-593.7 311.03,-590.05 304.69,-589.65 305.82,-593.7"/>
</g>
<!-- packages/web/src/pages/BlogListPage.tsx -->
<g id="node16" class="node">
<title>packages/web/src/pages/BlogListPage.tsx</title>
<g id="a_node16"><a xlink:href="packages/web/src/pages/BlogListPage.tsx" xlink:title="BlogListPage.tsx">
<path fill="#bbfeff" stroke="black" d="M263.21,-790.59C263.21,-790.59 191.29,-790.59 191.29,-790.59 188.21,-790.59 185.12,-787.51 185.12,-784.43 185.12,-784.43 185.12,-778.26 185.12,-778.26 185.12,-775.18 188.21,-772.09 191.29,-772.09 191.29,-772.09 263.21,-772.09 263.21,-772.09 266.29,-772.09 269.38,-775.18 269.38,-778.26 269.38,-778.26 269.38,-784.43 269.38,-784.43 269.38,-787.51 266.29,-790.59 263.21,-790.59"/>
<text xml:space="preserve" text-anchor="start" x="193.12" y="-778.04" font-family="Helvetica,sans-Serif" font-size="9.00">BlogListPage.tsx</text>
</a>
</g>
</g>
<!-- packages/web/src/App.tsx&#45;&gt;packages/web/src/pages/BlogListPage.tsx -->
<g id="edge14" class="edge">
<title>packages/web/src/App.tsx&#45;&gt;packages/web/src/pages/BlogListPage.tsx</title>
<path fill="none" stroke="#000000" stroke-width="2" stroke-opacity="0.200000" d="M135.86,-713.64C142.41,-727.02 156.27,-751.59 175.25,-765.34 176.31,-766.11 177.4,-766.84 178.53,-767.53"/>
<polygon fill="#000000" fill-opacity="0.200000" stroke="#000000" stroke-width="2" stroke-opacity="0.200000" points="177.35,-769.29 183.64,-770.23 179.31,-765.57 177.35,-769.29"/>
</g>
<!-- packages/web/src/pages/BlogPostPage.tsx -->
<g id="node17" class="node">
<title>packages/web/src/pages/BlogPostPage.tsx</title>
<g id="a_node17"><a xlink:href="packages/web/src/pages/BlogPostPage.tsx" xlink:title="BlogPostPage.tsx">
<path fill="#bbfeff" stroke="black" d="M265.08,-759.59C265.08,-759.59 189.42,-759.59 189.42,-759.59 186.33,-759.59 183.25,-756.51 183.25,-753.43 183.25,-753.43 183.25,-747.26 183.25,-747.26 183.25,-744.18 186.33,-741.09 189.42,-741.09 189.42,-741.09 265.08,-741.09 265.08,-741.09 268.17,-741.09 271.25,-744.18 271.25,-747.26 271.25,-747.26 271.25,-753.43 271.25,-753.43 271.25,-756.51 268.17,-759.59 265.08,-759.59"/>
<text xml:space="preserve" text-anchor="start" x="191.25" y="-747.04" font-family="Helvetica,sans-Serif" font-size="9.00">BlogPostPage.tsx</text>
</a>
</g>
</g>
<!-- packages/web/src/App.tsx&#45;&gt;packages/web/src/pages/BlogPostPage.tsx -->
<g id="edge15" class="edge">
<title>packages/web/src/App.tsx&#45;&gt;packages/web/src/pages/BlogPostPage.tsx</title>
<path fill="none" stroke="#000000" stroke-width="2" stroke-opacity="0.200000" d="M143.62,-714.05C152.06,-720.5 163.85,-728.79 175.25,-734.34 177.52,-735.45 179.88,-736.5 182.29,-737.49"/>
<polygon fill="#000000" fill-opacity="0.200000" stroke="#000000" stroke-width="2" stroke-opacity="0.200000" points="181.42,-739.41 187.77,-739.58 182.92,-735.48 181.42,-739.41"/>
</g>
<!-- packages/web/src/pages/EmbedPage.tsx -->
<g id="node18" class="node">
<title>packages/web/src/pages/EmbedPage.tsx</title>
<g id="a_node18"><a xlink:href="packages/web/src/pages/EmbedPage.tsx" xlink:title="EmbedPage.tsx">
<path fill="#bbfeff" stroke="black" d="M261.33,-821.59C261.33,-821.59 193.17,-821.59 193.17,-821.59 190.08,-821.59 187,-818.51 187,-815.43 187,-815.43 187,-809.26 187,-809.26 187,-806.18 190.08,-803.09 193.17,-803.09 193.17,-803.09 261.33,-803.09 261.33,-803.09 264.42,-803.09 267.5,-806.18 267.5,-809.26 267.5,-809.26 267.5,-815.43 267.5,-815.43 267.5,-818.51 264.42,-821.59 261.33,-821.59"/>
<text xml:space="preserve" text-anchor="start" x="195" y="-809.04" font-family="Helvetica,sans-Serif" font-size="9.00">EmbedPage.tsx</text>
</a>
</g>
</g>
<!-- packages/web/src/App.tsx&#45;&gt;packages/web/src/pages/EmbedPage.tsx -->
<g id="edge16" class="edge">
<title>packages/web/src/App.tsx&#45;&gt;packages/web/src/pages/EmbedPage.tsx</title>
<path fill="none" stroke="#000000" stroke-width="2" stroke-opacity="0.200000" d="M133.51,-713.96C137.67,-732.61 149.38,-773.83 175.25,-796.34 176.41,-797.35 177.62,-798.29 178.89,-799.17"/>
<polygon fill="#000000" fill-opacity="0.200000" stroke="#000000" stroke-width="2" stroke-opacity="0.200000" points="177.74,-800.93 183.99,-802.1 179.83,-797.29 177.74,-800.93"/>
</g>
<!-- packages/web/src/pages/InvitePage.tsx -->
<g id="node19" class="node">
<title>packages/web/src/pages/InvitePage.tsx</title>
<g id="a_node19"><a xlink:href="packages/web/src/pages/InvitePage.tsx" xlink:title="InvitePage.tsx">
<path fill="#bbfeff" stroke="black" d="M257.58,-728.59C257.58,-728.59 196.92,-728.59 196.92,-728.59 193.83,-728.59 190.75,-725.51 190.75,-722.43 190.75,-722.43 190.75,-716.26 190.75,-716.26 190.75,-713.18 193.83,-710.09 196.92,-710.09 196.92,-710.09 257.58,-710.09 257.58,-710.09 260.67,-710.09 263.75,-713.18 263.75,-716.26 263.75,-716.26 263.75,-722.43 263.75,-722.43 263.75,-725.51 260.67,-728.59 257.58,-728.59"/>
<text xml:space="preserve" text-anchor="start" x="198.75" y="-716.04" font-family="Helvetica,sans-Serif" font-size="9.00">InvitePage.tsx</text>
</a>
</g>
</g>
<!-- packages/web/src/App.tsx&#45;&gt;packages/web/src/pages/InvitePage.tsx -->
<g id="edge17" class="edge">
<title>packages/web/src/App.tsx&#45;&gt;packages/web/src/pages/InvitePage.tsx</title>
<path fill="none" stroke="#000000" stroke-width="2" stroke-opacity="0.200000" d="M157.98,-708.52C165.37,-709.69 173.62,-711 181.75,-712.29"/>
<polygon fill="#000000" fill-opacity="0.200000" stroke="#000000" stroke-width="2" stroke-opacity="0.200000" points="181.24,-714.33 187.5,-713.2 181.9,-710.19 181.24,-714.33"/>
</g>
<!-- packages/web/src/pages/TracePage.tsx -->
<g id="node20" class="node">
<title>packages/web/src/pages/TracePage.tsx</title>
<g id="a_node20"><a xlink:href="packages/web/src/pages/TracePage.tsx" xlink:title="TracePage.tsx">
<path fill="#bbfeff" stroke="black" d="M258.33,-852.59C258.33,-852.59 196.17,-852.59 196.17,-852.59 193.08,-852.59 190,-849.51 190,-846.43 190,-846.43 190,-840.26 190,-840.26 190,-837.18 193.08,-834.09 196.17,-834.09 196.17,-834.09 258.33,-834.09 258.33,-834.09 261.42,-834.09 264.5,-837.18 264.5,-840.26 264.5,-840.26 264.5,-846.43 264.5,-846.43 264.5,-849.51 261.42,-852.59 258.33,-852.59"/>
<text xml:space="preserve" text-anchor="start" x="198" y="-840.04" font-family="Helvetica,sans-Serif" font-size="9.00">TracePage.tsx</text>
</a>
</g>
</g>
<!-- packages/web/src/App.tsx&#45;&gt;packages/web/src/pages/TracePage.tsx -->
<g id="edge18" class="edge">
<title>packages/web/src/App.tsx&#45;&gt;packages/web/src/pages/TracePage.tsx</title>
<path fill="none" stroke="#000000" stroke-width="2" stroke-opacity="0.200000" d="M132.2,-713.87C134.11,-736.78 142.13,-795.42 175.25,-827.34 177.29,-829.31 179.56,-831.03 181.99,-832.54"/>
<polygon fill="#000000" fill-opacity="0.200000" stroke="#000000" stroke-width="2" stroke-opacity="0.200000" points="180.66,-834.22 186.96,-835.09 182.58,-830.48 180.66,-834.22"/>
</g>
<!-- packages/web/src/components/AskMeAnything.tsx -->
<g id="node21" class="node">
<title>packages/web/src/components/AskMeAnything.tsx</title>
<g id="a_node21"><a xlink:href="packages/web/src/components/AskMeAnything.tsx" xlink:title="AskMeAnything.tsx">
<path fill="#bbfeff" stroke="black" d="M503.21,-745.59C503.21,-745.59 422.29,-745.59 422.29,-745.59 419.21,-745.59 416.12,-742.51 416.12,-739.43 416.12,-739.43 416.12,-733.26 416.12,-733.26 416.12,-730.18 419.21,-727.09 422.29,-727.09 422.29,-727.09 503.21,-727.09 503.21,-727.09 506.29,-727.09 509.38,-730.18 509.38,-733.26 509.38,-733.26 509.38,-739.43 509.38,-739.43 509.38,-742.51 506.29,-745.59 503.21,-745.59"/>
<text xml:space="preserve" text-anchor="start" x="424.12" y="-733.04" font-family="Helvetica,sans-Serif" font-size="9.00">AskMeAnything.tsx</text>
</a>
</g>
</g>
<!-- packages/web/src/components/Hero.tsx&#45;&gt;packages/web/src/components/AskMeAnything.tsx -->
<g id="edge43" class="edge">
<title>packages/web/src/components/Hero.tsx&#45;&gt;packages/web/src/components/AskMeAnything.tsx</title>
<path fill="none" stroke="#000000" stroke-width="2" stroke-opacity="0.200000" d="M374.22,-614.8C383.18,-616.99 392.39,-621.02 398.25,-628.34 411.08,-644.36 393.21,-704.49 406.25,-720.34 407,-721.26 407.8,-722.12 408.65,-722.94"/>
<polygon fill="#000000" fill-opacity="0.200000" stroke="#000000" stroke-width="2" stroke-opacity="0.200000" points="407.36,-724.6 413.42,-726.5 409.87,-721.23 407.36,-724.6"/>
</g>
<!-- packages/web/src/components/Header.tsx -->
<g id="node33" class="node">
<title>packages/web/src/components/Header.tsx</title>
<g id="a_node33"><a xlink:href="packages/web/src/components/Header.tsx" xlink:title="Header.tsx">
<path fill="#bbfeff" stroke="black" d="M486.33,-652.59C486.33,-652.59 439.17,-652.59 439.17,-652.59 436.08,-652.59 433,-649.51 433,-646.43 433,-646.43 433,-640.26 433,-640.26 433,-637.18 436.08,-634.09 439.17,-634.09 439.17,-634.09 486.33,-634.09 486.33,-634.09 489.42,-634.09 492.5,-637.18 492.5,-640.26 492.5,-640.26 492.5,-646.43 492.5,-646.43 492.5,-649.51 489.42,-652.59 486.33,-652.59"/>
<text xml:space="preserve" text-anchor="start" x="441" y="-640.04" font-family="Helvetica,sans-Serif" font-size="9.00">Header.tsx</text>
</a>
</g>
</g>
<!-- packages/web/src/components/Hero.tsx&#45;&gt;packages/web/src/components/Header.tsx -->
<g id="edge44" class="edge">
<title>packages/web/src/components/Hero.tsx&#45;&gt;packages/web/src/components/Header.tsx</title>
<path fill="none" stroke="#000000" stroke-width="2" stroke-opacity="0.200000" d="M374.14,-620.88C384.15,-624.01 395.69,-627.48 406.25,-630.34 411.96,-631.89 418.03,-633.42 423.99,-634.86"/>
<polygon fill="#000000" fill-opacity="0.200000" stroke="#000000" stroke-width="2" stroke-opacity="0.200000" points="423.3,-636.86 429.62,-636.2 424.27,-632.77 423.3,-636.86"/>
</g>
<!-- packages/web/src/components/Services.tsx&#45;&gt;node_modules/.pnpm -->
<g id="edge48" class="edge">
<title>packages/web/src/components/Services.tsx&#45;&gt;node_modules/.pnpm</title>
<path fill="none" stroke="#000000" stroke-opacity="0.200000" d="M379.49,-577.67C386.75,-575.28 393.67,-571.45 398.25,-565.34 410.05,-549.6 392.18,-225.09 406.25,-211.34 459.64,-159.14 669.58,-194.19 742.25,-211.34 750.77,-213.35 759.5,-217.19 767.04,-221.17"/>
<polygon fill="#000000" fill-opacity="0.200000" stroke="#000000" stroke-opacity="0.200000" points="766.01,-223 772.27,-224.08 768.05,-219.33 766.01,-223"/>
</g>
<!-- packages/web/src/theme.tsx -->
<g id="node36" class="node">
<title>packages/web/src/theme.tsx</title>
<g id="a_node36"><a xlink:href="packages/web/src/theme.tsx" xlink:title="theme.tsx">
<path fill="#bbfeff" stroke="black" d="M720.08,-543.59C720.08,-543.59 677.42,-543.59 677.42,-543.59 674.33,-543.59 671.25,-540.51 671.25,-537.43 671.25,-537.43 671.25,-531.26 671.25,-531.26 671.25,-528.18 674.33,-525.09 677.42,-525.09 677.42,-525.09 720.08,-525.09 720.08,-525.09 723.17,-525.09 726.25,-528.18 726.25,-531.26 726.25,-531.26 726.25,-537.43 726.25,-537.43 726.25,-540.51 723.17,-543.59 720.08,-543.59"/>
<text xml:space="preserve" text-anchor="start" x="679.25" y="-531.04" font-family="Helvetica,sans-Serif" font-size="9.00">theme.tsx</text>
</a>
</g>
</g>
<!-- packages/web/src/components/Services.tsx&#45;&gt;packages/web/src/theme.tsx -->
<g id="edge47" class="edge">
<title>packages/web/src/components/Services.tsx&#45;&gt;packages/web/src/theme.tsx</title>
<path fill="none" stroke="#000000" stroke-width="2" stroke-opacity="0.200000" d="M379.54,-573.95C386,-571.73 392.56,-568.9 398.25,-565.34 464.38,-524.05 447.59,-469.05 519.25,-438.34 568.48,-417.25 593.11,-412.03 639.75,-438.34 669.26,-454.99 685.45,-493.37 692.8,-516.24"/>
<polygon fill="#000000" fill-opacity="0.200000" stroke="#000000" stroke-width="2" stroke-opacity="0.200000" points="690.73,-516.67 694.47,-521.81 694.75,-515.46 690.73,-516.67"/>
</g>
<!-- packages/web/src/pages/BlogListPage.tsx&#45;&gt;node_modules/.pnpm -->
<g id="edge61" class="edge">
<title>packages/web/src/pages/BlogListPage.tsx&#45;&gt;node_modules/.pnpm</title>
<path fill="none" stroke="#000000" stroke-opacity="0.200000" d="M269.76,-773.62C273.42,-771.48 276.7,-768.77 279.25,-765.34 289.73,-751.26 275.33,-146.24 287.25,-133.34 340.11,-76.15 383.87,-117.34 461.75,-117.34 461.75,-117.34 461.75,-117.34 580.5,-117.34 652.74,-117.34 683.5,-91.31 742.25,-133.34 770.14,-153.3 781.49,-194.34 785.81,-217.49"/>
<polygon fill="#000000" fill-opacity="0.200000" stroke="#000000" stroke-opacity="0.200000" points="783.73,-217.81 786.81,-223.38 787.88,-217.11 783.73,-217.81"/>
</g>
<!-- packages/web/src/components/BlogPostCard.tsx -->
<g id="node29" class="node">
<title>packages/web/src/components/BlogPostCard.tsx</title>
<g id="a_node29"><a xlink:href="packages/web/src/components/BlogPostCard.tsx" xlink:title="BlogPostCard.tsx">
<path fill="#bbfeff" stroke="black" d="M383.83,-714.59C383.83,-714.59 309.67,-714.59 309.67,-714.59 306.58,-714.59 303.5,-711.51 303.5,-708.43 303.5,-708.43 303.5,-702.26 303.5,-702.26 303.5,-699.18 306.58,-696.09 309.67,-696.09 309.67,-696.09 383.83,-696.09 383.83,-696.09 386.92,-696.09 390,-699.18 390,-702.26 390,-702.26 390,-708.43 390,-708.43 390,-711.51 386.92,-714.59 383.83,-714.59"/>
<text xml:space="preserve" text-anchor="start" x="311.5" y="-702.04" font-family="Helvetica,sans-Serif" font-size="9.00">BlogPostCard.tsx</text>
</a>
</g>
</g>
<!-- packages/web/src/pages/BlogListPage.tsx&#45;&gt;packages/web/src/components/BlogPostCard.tsx -->
<g id="edge57" class="edge">
<title>packages/web/src/pages/BlogListPage.tsx&#45;&gt;packages/web/src/components/BlogPostCard.tsx</title>
<path fill="none" stroke="#000000" stroke-width="2" stroke-opacity="0.200000" d="M269.69,-772.89C273.27,-770.88 276.55,-768.4 279.25,-765.34 292.41,-750.44 273.82,-736 287.25,-721.34 289.62,-718.75 292.37,-716.57 295.36,-714.72"/>
<polygon fill="#000000" fill-opacity="0.200000" stroke="#000000" stroke-width="2" stroke-opacity="0.200000" points="296.05,-716.72 300.48,-712.16 294.17,-712.97 296.05,-716.72"/>
</g>
<!-- packages/web/src/types/blog.ts -->
<g id="node30" class="node">
<title>packages/web/src/types/blog.ts</title>
<g id="a_node30"><a xlink:href="packages/web/src/types/blog.ts" xlink:title="blog.ts">
<path fill="#ddfeff" stroke="black" d="M600.33,-998.59C600.33,-998.59 558.67,-998.59 558.67,-998.59 555.58,-998.59 552.5,-995.51 552.5,-992.43 552.5,-992.43 552.5,-986.26 552.5,-986.26 552.5,-983.18 555.58,-980.09 558.67,-980.09 558.67,-980.09 600.33,-980.09 600.33,-980.09 603.42,-980.09 606.5,-983.18 606.5,-986.26 606.5,-986.26 606.5,-992.43 606.5,-992.43 606.5,-995.51 603.42,-998.59 600.33,-998.59"/>
<text xml:space="preserve" text-anchor="start" x="566" y="-986.04" font-family="Helvetica,sans-Serif" font-size="9.00">blog.ts</text>
</a>
</g>
</g>
<!-- packages/web/src/pages/BlogListPage.tsx&#45;&gt;packages/web/src/types/blog.ts -->
<g id="edge59" class="edge">
<title>packages/web/src/pages/BlogListPage.tsx&#45;&gt;packages/web/src/types/blog.ts</title>
<path fill="none" stroke="#000000" stroke-opacity="0.200000" d="M269.81,-789.69C273.36,-791.72 276.61,-794.23 279.25,-797.34 295.53,-816.5 277.46,-830.18 287.25,-853.34 320.93,-933.02 328.61,-969.22 406.25,-1007.34 448.14,-1027.91 466.39,-1020.21 511.25,-1007.34 515.28,-1006.19 515.37,-1003.93 519.25,-1002.34 527.32,-999.05 536.36,-996.53 544.91,-994.62"/>
<polygon fill="none" stroke="#000000" stroke-opacity="0.200000" points="545.32,-996.68 550.77,-993.41 544.47,-992.57 545.32,-996.68"/>
</g>
<!-- packages/web/src/pages/BlogListPage.tsx&#45;&gt;packages/web/src/components/Header.tsx -->
<g id="edge58" class="edge">
<title>packages/web/src/pages/BlogListPage.tsx&#45;&gt;packages/web/src/components/Header.tsx</title>
<path fill="none" stroke="#000000" stroke-width="2" stroke-opacity="0.200000" d="M265.55,-791.04C304.18,-798.6 363.63,-802.92 398.25,-769.34 410.92,-757.06 398.03,-705.96 406.25,-690.34 413.25,-677.05 425.72,-665.97 437.08,-657.9"/>
<polygon fill="#000000" fill-opacity="0.200000" stroke="#000000" stroke-width="2" stroke-opacity="0.200000" points="437.98,-659.83 441.79,-654.74 435.64,-656.34 437.98,-659.83"/>
</g>
<!-- packages/web/src/utils/blog.ts -->
<g id="node39" class="node">
<title>packages/web/src/utils/blog.ts</title>
<g id="a_node39"><a xlink:href="packages/web/src/utils/blog.ts" xlink:title="blog.ts">
<path fill="#ddfeff" stroke="black" d="M483.58,-925.59C483.58,-925.59 441.92,-925.59 441.92,-925.59 438.83,-925.59 435.75,-922.51 435.75,-919.43 435.75,-919.43 435.75,-913.26 435.75,-913.26 435.75,-910.18 438.83,-907.09 441.92,-907.09 441.92,-907.09 483.58,-907.09 483.58,-907.09 486.67,-907.09 489.75,-910.18 489.75,-913.26 489.75,-913.26 489.75,-919.43 489.75,-919.43 489.75,-922.51 486.67,-925.59 483.58,-925.59"/>
<text xml:space="preserve" text-anchor="start" x="449.25" y="-913.04" font-family="Helvetica,sans-Serif" font-size="9.00">blog.ts</text>
</a>
</g>
</g>
<!-- packages/web/src/pages/BlogListPage.tsx&#45;&gt;packages/web/src/utils/blog.ts -->
<g id="edge60" class="edge">
<title>packages/web/src/pages/BlogListPage.tsx&#45;&gt;packages/web/src/utils/blog.ts</title>
<path fill="none" stroke="#000000" stroke-width="2" stroke-opacity="0.200000" d="M265.51,-791.03C270.26,-792.84 274.96,-794.94 279.25,-797.34 283.37,-799.65 283.63,-801.3 287.25,-804.34 339.27,-848.06 345.97,-868.98 406.25,-900.34 412.77,-903.74 420.11,-906.5 427.26,-908.71"/>
<polygon fill="#000000" fill-opacity="0.200000" stroke="#000000" stroke-width="2" stroke-opacity="0.200000" points="426.25,-910.61 432.6,-910.23 427.41,-906.57 426.25,-910.61"/>
</g>
<!-- packages/web/src/pages/BlogPostPage.tsx&#45;&gt;node_modules/.pnpm -->
<g id="edge66" class="edge">
<title>packages/web/src/pages/BlogPostPage.tsx&#45;&gt;node_modules/.pnpm</title>
<path fill="none" stroke="#000000" stroke-opacity="0.200000" d="M271.63,-741.45C274.54,-739.51 277.14,-737.17 279.25,-734.34 289.65,-720.37 275.43,-120.13 287.25,-107.34 340.11,-50.15 383.87,-91.34 461.75,-91.34 461.75,-91.34 461.75,-91.34 580.5,-91.34 652.74,-91.34 685.22,-63 742.25,-107.34 776.79,-134.2 785.42,-189.37 787.56,-217.32"/>
<polygon fill="#000000" fill-opacity="0.200000" stroke="#000000" stroke-opacity="0.200000" points="785.46,-217.37 787.92,-223.23 789.65,-217.11 785.46,-217.37"/>
</g>
<!-- packages/web/src/pages/BlogPostPage.tsx&#45;&gt;packages/web/src/types/blog.ts -->
<g id="edge64" class="edge">
<title>packages/web/src/pages/BlogPostPage.tsx&#45;&gt;packages/web/src/types/blog.ts</title>
<path fill="none" stroke="#000000" stroke-opacity="0.200000" d="M271.32,-759.48C274.29,-761.37 277,-763.63 279.25,-766.34 298.67,-789.77 270.08,-809.22 287.25,-834.34 318.78,-880.46 367.44,-846.73 398.25,-893.34 409.69,-910.65 391.09,-972.18 406.25,-986.34 425.57,-1004.39 500.34,-998.94 544.77,-993.84"/>
<polygon fill="none" stroke="#000000" stroke-opacity="0.200000" points="544.95,-995.94 550.66,-993.14 544.45,-991.77 544.95,-995.94"/>
</g>
<!-- packages/web/src/components/BlogProvenance.tsx -->
<g id="node31" class="node">
<title>packages/web/src/components/BlogProvenance.tsx</title>
<g id="a_node31"><a xlink:href="packages/web/src/components/BlogProvenance.tsx" xlink:title="BlogProvenance.tsx">
<path fill="#bbfeff" stroke="black" d="M389.46,-683.59C389.46,-683.59 304.04,-683.59 304.04,-683.59 300.96,-683.59 297.88,-680.51 297.88,-677.43 297.88,-677.43 297.88,-671.26 297.88,-671.26 297.88,-668.18 300.96,-665.09 304.04,-665.09 304.04,-665.09 389.46,-665.09 389.46,-665.09 392.54,-665.09 395.62,-668.18 395.62,-671.26 395.62,-671.26 395.62,-677.43 395.62,-677.43 395.62,-680.51 392.54,-683.59 389.46,-683.59"/>
<text xml:space="preserve" text-anchor="start" x="305.88" y="-671.04" font-family="Helvetica,sans-Serif" font-size="9.00">BlogProvenance.tsx</text>
</a>
</g>
</g>
<!-- packages/web/src/pages/BlogPostPage.tsx&#45;&gt;packages/web/src/components/BlogProvenance.tsx -->
<g id="edge62" class="edge">
<title>packages/web/src/pages/BlogPostPage.tsx&#45;&gt;packages/web/src/components/BlogProvenance.tsx</title>
<path fill="none" stroke="#000000" stroke-width="2" stroke-opacity="0.200000" d="M271.61,-740.75C274.44,-738.96 277.04,-736.85 279.25,-734.34 292.41,-719.44 273.82,-705 287.25,-690.34 288.16,-689.35 289.13,-688.41 290.14,-687.53"/>
<polygon fill="#000000" fill-opacity="0.200000" stroke="#000000" stroke-width="2" stroke-opacity="0.200000" points="291.2,-689.36 294.95,-684.22 288.82,-685.9 291.2,-689.36"/>
</g>
<!-- packages/web/src/pages/BlogPostPage.tsx&#45;&gt;packages/web/src/components/Header.tsx -->
<g id="edge63" class="edge">
<title>packages/web/src/pages/BlogPostPage.tsx&#45;&gt;packages/web/src/components/Header.tsx</title>
<path fill="none" stroke="#000000" stroke-width="2" stroke-opacity="0.200000" d="M271.73,-759.62C315.87,-767.89 380.22,-776.43 398.25,-760.34 409.93,-749.92 398.87,-704.15 406.25,-690.34 413.33,-677.1 425.81,-666.01 437.15,-657.94"/>
<polygon fill="#000000" fill-opacity="0.200000" stroke="#000000" stroke-width="2" stroke-opacity="0.200000" points="438.05,-659.87 441.85,-654.77 435.7,-656.38 438.05,-659.87"/>
</g>
<!-- packages/web/src/pages/BlogPostPage.tsx&#45;&gt;packages/web/src/utils/blog.ts -->
<g id="edge65" class="edge">
<title>packages/web/src/pages/BlogPostPage.tsx&#45;&gt;packages/web/src/utils/blog.ts</title>
<path fill="none" stroke="#000000" stroke-width="2" stroke-opacity="0.200000" d="M267.14,-760.08C271.38,-761.85 275.51,-763.92 279.25,-766.34 283.74,-769.25 283.56,-771.47 287.25,-775.34 334.91,-825.43 357.57,-828.44 398.25,-884.34 402.93,-890.77 400.14,-895.26 406.25,-900.34 412.12,-905.23 419.42,-908.62 426.76,-910.98"/>
<polygon fill="#000000" fill-opacity="0.200000" stroke="#000000" stroke-width="2" stroke-opacity="0.200000" points="426.07,-912.97 432.41,-912.51 427.17,-908.92 426.07,-912.97"/>
</g>
<!-- packages/web/src/pages/EmbedPage.tsx&#45;&gt;node_modules/.pnpm -->
<g id="edge70" class="edge">
<title>packages/web/src/pages/EmbedPage.tsx&#45;&gt;node_modules/.pnpm</title>
<path fill="none" stroke="#000000" stroke-opacity="0.200000" d="M267.81,-805.69C272.26,-803.4 276.26,-800.36 279.25,-796.34 289.81,-782.15 275.24,-172.34 287.25,-159.34 340.11,-102.14 383.87,-143.34 461.75,-143.34 461.75,-143.34 461.75,-143.34 580.5,-143.34 652.74,-143.34 681.03,-120.99 742.25,-159.34 763.66,-172.75 776.6,-200.13 783.09,-217.84"/>
<polygon fill="#000000" fill-opacity="0.200000" stroke="#000000" stroke-opacity="0.200000" points="781.04,-218.35 784.98,-223.34 785.01,-216.98 781.04,-218.35"/>
</g>
<!-- packages/web/src/pages/EmbedPage.tsx&#45;&gt;packages/web/src/components/AskMeAnything.tsx -->
<g id="edge68" class="edge">
<title>packages/web/src/pages/EmbedPage.tsx&#45;&gt;packages/web/src/components/AskMeAnything.tsx</title>
<path fill="none" stroke="#000000" stroke-width="2" stroke-opacity="0.200000" d="M256.15,-822.02C291.85,-832.58 354.31,-844.7 398.25,-818.34 404.73,-814.46 402.04,-809.62 406.25,-803.34 418.6,-784.93 435.04,-765.6 446.82,-752.46"/>
<polygon fill="#000000" fill-opacity="0.200000" stroke="#000000" stroke-width="2" stroke-opacity="0.200000" points="448.31,-753.94 450.79,-748.08 445.2,-751.12 448.31,-753.94"/>
</g>
<!-- packages/web/src/utils/embedHeight.ts -->
<g id="node25" class="node">
<title>packages/web/src/utils/embedHeight.ts</title>
<g id="a_node25"><a xlink:href="packages/web/src/utils/embedHeight.ts" xlink:title="embedHeight.ts">
<path fill="#ddfeff" stroke="black" d="M613.58,-925.59C613.58,-925.59 545.42,-925.59 545.42,-925.59 542.33,-925.59 539.25,-922.51 539.25,-919.43 539.25,-919.43 539.25,-913.26 539.25,-913.26 539.25,-910.18 542.33,-907.09 545.42,-907.09 545.42,-907.09 613.58,-907.09 613.58,-907.09 616.67,-907.09 619.75,-910.18 619.75,-913.26 619.75,-913.26 619.75,-919.43 619.75,-919.43 619.75,-922.51 616.67,-925.59 613.58,-925.59"/>
<text xml:space="preserve" text-anchor="start" x="547.25" y="-913.04" font-family="Helvetica,sans-Serif" font-size="9.00">embedHeight.ts</text>
</a>
</g>
</g>
<!-- packages/web/src/pages/EmbedPage.tsx&#45;&gt;packages/web/src/utils/embedHeight.ts -->
<g id="edge67" class="edge">
<title>packages/web/src/pages/EmbedPage.tsx&#45;&gt;packages/web/src/utils/embedHeight.ts</title>
<path fill="none" stroke="#000000" stroke-width="2" stroke-opacity="0.200000" d="M267.78,-820.39C272.01,-822.47 275.96,-825.07 279.25,-828.34 287.52,-836.57 280.19,-844.06 287.25,-853.34 325.53,-903.68 345.65,-913.25 406.25,-931.34 450,-944.4 502.57,-936.65 538.04,-928.2"/>
<polygon fill="#000000" fill-opacity="0.200000" stroke="#000000" stroke-width="2" stroke-opacity="0.200000" points="538.42,-930.27 543.73,-926.78 537.4,-926.2 538.42,-930.27"/>
</g>
<!-- packages/web/src/pages/EmbedPage.tsx&#45;&gt;packages/web/src/components/Header.tsx -->
<g id="edge69" class="edge">
<title>packages/web/src/pages/EmbedPage.tsx&#45;&gt;packages/web/src/components/Header.tsx</title>
<path fill="none" stroke="#000000" stroke-width="2" stroke-opacity="0.200000" d="M267.83,-812.01C312.44,-810.73 381,-805.73 398.25,-787.34 413.05,-771.57 396.35,-709.57 406.25,-690.34 413.12,-676.99 425.59,-665.9 436.97,-657.85"/>
<polygon fill="#000000" fill-opacity="0.200000" stroke="#000000" stroke-width="2" stroke-opacity="0.200000" points="437.88,-659.77 441.7,-654.69 435.55,-656.27 437.88,-659.77"/>
</g>
<!-- packages/web/src/pages/InvitePage.tsx&#45;&gt;node_modules/.pnpm -->
<g id="edge73" class="edge">
<title>packages/web/src/pages/InvitePage.tsx&#45;&gt;node_modules/.pnpm</title>
<path fill="none" stroke="#000000" stroke-opacity="0.200000" d="M228.42,-709.61C229.81,-632.93 240.73,-127.83 287.25,-81.34 342.34,-26.29 383.87,-65.34 461.75,-65.34 461.75,-65.34 461.75,-65.34 580.5,-65.34 652.74,-65.34 686.47,-35.43 742.25,-81.34 783.71,-115.47 788.77,-185.48 788.77,-217.58"/>
<polygon fill="#000000" fill-opacity="0.200000" stroke="#000000" stroke-opacity="0.200000" points="786.68,-217.34 788.7,-223.37 790.88,-217.4 786.68,-217.34"/>
</g>
<!-- packages/web/src/pages/InvitePage.tsx&#45;&gt;packages/web/src/components/Footer.tsx -->
<g id="edge71" class="edge">
<title>packages/web/src/pages/InvitePage.tsx&#45;&gt;packages/web/src/components/Footer.tsx</title>
<path fill="none" stroke="#000000" stroke-width="2" stroke-opacity="0.200000" d="M264.07,-715.82C269.79,-713.79 275.16,-710.78 279.25,-706.34 293.61,-690.76 273.02,-675.04 287.25,-659.34 293.24,-652.73 301.68,-648.74 310.28,-646.37"/>
<polygon fill="#000000" fill-opacity="0.200000" stroke="#000000" stroke-width="2" stroke-opacity="0.200000" points="310.49,-648.47 315.9,-645.14 309.59,-644.37 310.49,-648.47"/>
</g>
<!-- packages/web/src/pages/InvitePage.tsx&#45;&gt;packages/web/src/components/Header.tsx -->
<g id="edge72" class="edge">
<title>packages/web/src/pages/InvitePage.tsx&#45;&gt;packages/web/src/components/Header.tsx</title>
<path fill="none" stroke="#000000" stroke-width="2" stroke-opacity="0.200000" d="M264.18,-726.55C269.62,-728.75 274.87,-731.61 279.25,-735.34 285.3,-740.5 280.49,-747.16 287.25,-751.34 308.23,-764.31 379.71,-767.61 398.25,-751.34 408.53,-742.33 399.7,-702.35 406.25,-690.34 413.49,-677.07 426.1,-665.93 437.48,-657.83"/>
<polygon fill="#000000" fill-opacity="0.200000" stroke="#000000" stroke-width="2" stroke-opacity="0.200000" points="438.39,-659.74 442.19,-654.65 436.05,-656.26 438.39,-659.74"/>
</g>
<!-- packages/web/src/pages/TracePage.tsx&#45;&gt;node_modules/.pnpm -->
<g id="edge77" class="edge">
<title>packages/web/src/pages/TracePage.tsx&#45;&gt;node_modules/.pnpm</title>
<path fill="none" stroke="#000000" stroke-opacity="0.200000" d="M265,-837.96C270.55,-835.56 275.62,-832.16 279.25,-827.34 290.22,-812.78 283.79,-517.24 287.25,-499.34 318.78,-336.46 295.84,-169.34 461.75,-169.34 461.75,-169.34 461.75,-169.34 580.5,-169.34 653.05,-169.34 676.72,-160.21 742.25,-191.34 755.66,-197.71 767.79,-209.43 776.22,-219.02"/>
<polygon fill="#000000" fill-opacity="0.200000" stroke="#000000" stroke-opacity="0.200000" points="774.52,-220.26 780,-223.5 777.73,-217.56 774.52,-220.26"/>
</g>
<!-- packages/web/src/pages/TracePage.tsx&#45;&gt;packages/contracts/src/web/index.ts -->
<g id="edge76" class="edge">
<title>packages/web/src/pages/TracePage.tsx&#45;&gt;packages/contracts/src/web/index.ts</title>
<path fill="none" stroke="#000000" stroke-opacity="0.200000" d="M237.95,-853.04C272.93,-887.56 397.05,-1006.08 519.25,-1074.34 567.07,-1101.05 627.64,-1121.23 664.51,-1132.15"/>
<polygon fill="none" stroke="#000000" stroke-opacity="0.200000" points="663.75,-1134.12 670.1,-1133.79 664.93,-1130.09 663.75,-1134.12"/>
</g>
<!-- packages/web/src/utils/api.ts -->
<g id="node24" class="node">
<title>packages/web/src/utils/api.ts</title>
<g id="a_node24"><a xlink:href="packages/web/src/utils/api.ts" xlink:title="api.ts">
<path fill="#ddfeff" stroke="black" d="M600.33,-894.59C600.33,-894.59 558.67,-894.59 558.67,-894.59 555.58,-894.59 552.5,-891.51 552.5,-888.43 552.5,-888.43 552.5,-882.26 552.5,-882.26 552.5,-879.18 555.58,-876.09 558.67,-876.09 558.67,-876.09 600.33,-876.09 600.33,-876.09 603.42,-876.09 606.5,-879.18 606.5,-882.26 606.5,-882.26 606.5,-888.43 606.5,-888.43 606.5,-891.51 603.42,-894.59 600.33,-894.59"/>
<text xml:space="preserve" text-anchor="start" x="568.62" y="-882.04" font-family="Helvetica,sans-Serif" font-size="9.00">api.ts</text>
</a>
</g>
</g>
<!-- packages/web/src/pages/TracePage.tsx&#45;&gt;packages/web/src/utils/api.ts -->
<g id="edge74" class="edge">
<title>packages/web/src/pages/TracePage.tsx&#45;&gt;packages/web/src/utils/api.ts</title>
<path fill="none" stroke="#000000" stroke-width="2" stroke-opacity="0.200000" d="M264.88,-851.33C269.78,-852.79 274.69,-854.46 279.25,-856.34 339.84,-881.36 343.02,-914.06 406.25,-931.34 451.27,-943.64 474.24,-959.77 511.25,-931.34 522.19,-922.94 509.51,-911.12 519.25,-901.34 525.74,-894.83 534.58,-890.89 543.45,-888.53"/>
<polygon fill="#000000" fill-opacity="0.200000" stroke="#000000" stroke-width="2" stroke-opacity="0.200000" points="543.86,-890.59 549.29,-887.29 542.98,-886.49 543.86,-890.59"/>
</g>
<!-- packages/web/src/utils/logger.ts -->
<g id="node40" class="node">
<title>packages/web/src/utils/logger.ts</title>
<g id="a_node40"><a xlink:href="packages/web/src/utils/logger.ts" xlink:title="logger.ts">
<path fill="#ddfeff" stroke="black" d="M483.58,-863.59C483.58,-863.59 441.92,-863.59 441.92,-863.59 438.83,-863.59 435.75,-860.51 435.75,-857.43 435.75,-857.43 435.75,-851.26 435.75,-851.26 435.75,-848.18 438.83,-845.09 441.92,-845.09 441.92,-845.09 483.58,-845.09 483.58,-845.09 486.67,-845.09 489.75,-848.18 489.75,-851.26 489.75,-851.26 489.75,-857.43 489.75,-857.43 489.75,-860.51 486.67,-863.59 483.58,-863.59"/>
<text xml:space="preserve" text-anchor="start" x="445.5" y="-851.04" font-family="Helvetica,sans-Serif" font-size="9.00">logger.ts</text>
</a>
</g>
</g>
<!-- packages/web/src/pages/TracePage.tsx&#45;&gt;packages/web/src/utils/logger.ts -->
<g id="edge75" class="edge">
<title>packages/web/src/pages/TracePage.tsx&#45;&gt;packages/web/src/utils/logger.ts</title>
<path fill="none" stroke="#000000" stroke-width="2" stroke-opacity="0.200000" d="M264.99,-845.07C309.24,-847.16 383.02,-850.63 426.56,-852.68"/>
<polygon fill="#000000" fill-opacity="0.200000" stroke="#000000" stroke-width="2" stroke-opacity="0.200000" points="426.25,-854.77 432.34,-852.96 426.45,-850.58 426.25,-854.77"/>
</g>
<!-- packages/web/src/components/AskMeAnything.tsx&#45;&gt;node_modules/.pnpm -->
<g id="edge27" class="edge">
<title>packages/web/src/components/AskMeAnything.tsx&#45;&gt;node_modules/.pnpm</title>
<path fill="none" stroke="#000000" stroke-opacity="0.200000" d="M504.57,-726.78C507.11,-724.99 509.39,-722.86 511.25,-720.34 529.9,-695.15 500.64,-463.57 519.25,-438.34 552.83,-392.82 586.86,-417.41 639.75,-397.34 685.94,-379.82 707.87,-389.81 742.25,-354.34 770.56,-325.14 781.87,-276.69 786.04,-251.2"/>
<polygon fill="#000000" fill-opacity="0.200000" stroke="#000000" stroke-opacity="0.200000" points="788.12,-251.53 786.94,-245.28 783.97,-250.91 788.12,-251.53"/>
</g>
<!-- packages/web/src/components/AskMeAnything.tsx&#45;&gt;packages/contracts/src/ethics&#45;core/index.ts -->
<g id="edge26" class="edge">
<title>packages/web/src/components/AskMeAnything.tsx&#45;&gt;packages/contracts/src/ethics&#45;core/index.ts</title>
<path fill="none" stroke="#000000" stroke-opacity="0.200000" d="M473.2,-745.75C484.65,-757.85 503.39,-780.11 511.25,-803.34 519.26,-827.04 503.37,-1009.01 519.25,-1028.34 570.98,-1091.32 616.25,-1070.34 697.75,-1070.34 697.75,-1070.34 697.75,-1070.34 873,-1070.34 927.54,-1070.34 981.92,-1111.49 1007.6,-1134.01"/>
<polygon fill="none" stroke="#000000" stroke-opacity="0.200000" points="1005.92,-1135.33 1011.79,-1137.77 1008.72,-1132.2 1005.92,-1135.33"/>
</g>
<!-- packages/web/src/config.ts -->
<g id="node22" class="node">
<title>packages/web/src/config.ts</title>
<g id="a_node22"><a xlink:href="packages/web/src/config.ts" xlink:title="config.ts">
<path fill="#ddfeff" stroke="black" d="M600.33,-798.59C600.33,-798.59 558.67,-798.59 558.67,-798.59 555.58,-798.59 552.5,-795.51 552.5,-792.43 552.5,-792.43 552.5,-786.26 552.5,-786.26 552.5,-783.18 555.58,-780.09 558.67,-780.09 558.67,-780.09 600.33,-780.09 600.33,-780.09 603.42,-780.09 606.5,-783.18 606.5,-786.26 606.5,-786.26 606.5,-792.43 606.5,-792.43 606.5,-795.51 603.42,-798.59 600.33,-798.59"/>
<text xml:space="preserve" text-anchor="start" x="562.62" y="-786.04" font-family="Helvetica,sans-Serif" font-size="9.00">config.ts</text>
</a>
</g>
</g>
<!-- packages/web/src/components/AskMeAnything.tsx&#45;&gt;packages/web/src/config.ts -->
<g id="edge20" class="edge">
<title>packages/web/src/components/AskMeAnything.tsx&#45;&gt;packages/web/src/config.ts</title>
<path fill="none" stroke="#000000" stroke-width="2" stroke-opacity="0.200000" d="M474.46,-745.76C485.11,-754.65 502.28,-767.72 519.25,-775.34 526.83,-778.75 535.33,-781.38 543.49,-783.39"/>
<polygon fill="#000000" fill-opacity="0.200000" stroke="#000000" stroke-width="2" stroke-opacity="0.200000" points="542.87,-785.41 549.18,-784.68 543.79,-781.31 542.87,-785.41"/>
</g>
<!-- packages/web/src/data/examplePrompts.json -->
<g id="node23" class="node">
<title>packages/web/src/data/examplePrompts.json</title>
<g id="a_node23"><a xlink:href="packages/web/src/data/examplePrompts.json" xlink:title="examplePrompts.json">
<path fill="#ffee44" stroke="black" d="M625.58,-467.59C625.58,-467.59 533.42,-467.59 533.42,-467.59 530.33,-467.59 527.25,-464.51 527.25,-461.43 527.25,-461.43 527.25,-455.26 527.25,-455.26 527.25,-452.18 530.33,-449.09 533.42,-449.09 533.42,-449.09 625.58,-449.09 625.58,-449.09 628.67,-449.09 631.75,-452.18 631.75,-455.26 631.75,-455.26 631.75,-461.43 631.75,-461.43 631.75,-464.51 628.67,-467.59 625.58,-467.59"/>
<text xml:space="preserve" text-anchor="start" x="535.25" y="-455.04" font-family="Helvetica,sans-Serif" font-size="9.00">examplePrompts.json</text>
</a>
</g>
</g>
<!-- packages/web/src/components/AskMeAnything.tsx&#45;&gt;packages/web/src/data/examplePrompts.json -->
<g id="edge21" class="edge">
<title>packages/web/src/components/AskMeAnything.tsx&#45;&gt;packages/web/src/data/examplePrompts.json</title>
<path fill="none" stroke="#000000" stroke-width="2" stroke-opacity="0.200000" d="M504.55,-726.77C507.09,-724.97 509.38,-722.85 511.25,-720.34 525.94,-700.65 507.45,-520.9 519.25,-499.34 525.53,-487.86 536.57,-478.92 547.44,-472.36"/>
<polygon fill="#000000" fill-opacity="0.200000" stroke="#000000" stroke-width="2" stroke-opacity="0.200000" points="548.39,-474.23 552.6,-469.47 546.34,-470.56 548.39,-474.23"/>
</g>
<!-- packages/web/src/components/AskMeAnything.tsx&#45;&gt;packages/web/src/utils/api.ts -->
<g id="edge22" class="edge">
<title>packages/web/src/components/AskMeAnything.tsx&#45;&gt;packages/web/src/utils/api.ts</title>
<path fill="none" stroke="#000000" stroke-width="2" stroke-opacity="0.200000" d="M472.5,-746.02C483.23,-758.41 501.23,-780.96 511.25,-803.34 517.77,-817.91 510.74,-824.84 519.25,-838.34 527.64,-851.64 541.14,-862.79 553.14,-870.88"/>
<polygon fill="#000000" fill-opacity="0.200000" stroke="#000000" stroke-width="2" stroke-opacity="0.200000" points="552.01,-872.65 558.2,-874.12 554.28,-869.11 552.01,-872.65"/>
</g>
<!-- packages/web/src/components/AskMeAnything.tsx&#45;&gt;packages/web/src/utils/embedHeight.ts -->
<g id="edge23" class="edge">
<title>packages/web/src/components/AskMeAnything.tsx&#45;&gt;packages/web/src/utils/embedHeight.ts</title>
<path fill="none" stroke="#000000" stroke-width="2" stroke-opacity="0.200000" d="M473.02,-745.81C484.3,-757.98 502.85,-780.3 511.25,-803.34 518.66,-823.66 505.4,-883.73 519.25,-900.34 522.4,-904.13 526.35,-907.07 530.71,-909.34"/>
<polygon fill="#000000" fill-opacity="0.200000" stroke="#000000" stroke-width="2" stroke-opacity="0.200000" points="529.75,-911.22 536.1,-911.6 531.37,-907.35 529.75,-911.22"/>
</g>
<!-- packages/web/src/utils/turnstile.ts -->
<g id="node26" class="node">
<title>packages/web/src/utils/turnstile.ts</title>
<g id="a_node26"><a xlink:href="packages/web/src/utils/turnstile.ts" xlink:title="turnstile.ts">
<path fill="#ddfeff" stroke="black" d="M601.96,-832.59C601.96,-832.59 557.04,-832.59 557.04,-832.59 553.96,-832.59 550.88,-829.51 550.88,-826.43 550.88,-826.43 550.88,-820.26 550.88,-820.26 550.88,-817.18 553.96,-814.09 557.04,-814.09 557.04,-814.09 601.96,-814.09 601.96,-814.09 605.04,-814.09 608.12,-817.18 608.12,-820.26 608.12,-820.26 608.12,-826.43 608.12,-826.43 608.12,-829.51 605.04,-832.59 601.96,-832.59"/>
<text xml:space="preserve" text-anchor="start" x="558.88" y="-820.04" font-family="Helvetica,sans-Serif" font-size="9.00">turnstile.ts</text>
</a>
</g>
</g>
<!-- packages/web/src/components/AskMeAnything.tsx&#45;&gt;packages/web/src/utils/turnstile.ts -->
<g id="edge24" class="edge">
<title>packages/web/src/components/AskMeAnything.tsx&#45;&gt;packages/web/src/utils/turnstile.ts</title>
<path fill="none" stroke="#000000" stroke-width="2" stroke-opacity="0.200000" d="M469.81,-746.06C481.29,-764.16 506.22,-801.96 519.25,-810.34 525.94,-814.65 533.85,-817.54 541.66,-819.49"/>
<polygon fill="#000000" fill-opacity="0.200000" stroke="#000000" stroke-width="2" stroke-opacity="0.200000" points="541.12,-821.52 547.42,-820.69 541.97,-817.41 541.12,-821.52"/>
</g>
<!-- packages/web/src/components/ProvenanceFooter.tsx -->
<g id="node27" class="node">
<title>packages/web/src/components/ProvenanceFooter.tsx</title>
<g id="a_node27"><a xlink:href="packages/web/src/components/ProvenanceFooter.tsx" xlink:title="ProvenanceFooter.tsx">
<path fill="#bbfeff" stroke="black" d="M625.58,-729.59C625.58,-729.59 533.42,-729.59 533.42,-729.59 530.33,-729.59 527.25,-726.51 527.25,-723.43 527.25,-723.43 527.25,-717.26 527.25,-717.26 527.25,-714.18 530.33,-711.09 533.42,-711.09 533.42,-711.09 625.58,-711.09 625.58,-711.09 628.67,-711.09 631.75,-714.18 631.75,-717.26 631.75,-717.26 631.75,-723.43 631.75,-723.43 631.75,-726.51 628.67,-729.59 625.58,-729.59"/>
<text xml:space="preserve" text-anchor="start" x="535.25" y="-717.04" font-family="Helvetica,sans-Serif" font-size="9.00">ProvenanceFooter.tsx</text>
</a>
</g>
</g>
<!-- packages/web/src/components/AskMeAnything.tsx&#45;&gt;packages/web/src/components/ProvenanceFooter.tsx -->
<g id="edge25" class="edge">
<title>packages/web/src/components/AskMeAnything.tsx&#45;&gt;packages/web/src/components/ProvenanceFooter.tsx</title>
<path fill="none" stroke="#000000" stroke-width="2" stroke-opacity="0.200000" d="M509.76,-729.93C512.48,-729.55 515.23,-729.16 518,-728.78"/>
<polygon fill="#000000" fill-opacity="0.200000" stroke="#000000" stroke-width="2" stroke-opacity="0.200000" points="518.17,-730.87 523.83,-727.97 517.59,-726.71 518.17,-730.87"/>
</g>
<!-- packages/web/src/config.ts&#45;&gt;packages/contracts/src/web/index.ts -->
<g id="edge52" class="edge">
<title>packages/web/src/config.ts&#45;&gt;packages/contracts/src/web/index.ts</title>
<path fill="none" stroke="#000000" stroke-opacity="0.200000" d="M606.77,-788.98C618.58,-790.27 631.65,-794 639.75,-803.34 652.76,-818.35 644.9,-872.69 647.75,-892.34 660.55,-980.71 684.39,-1085.08 693.79,-1124.84"/>
<polygon fill="none" stroke="#000000" stroke-opacity="0.200000" points="691.69,-1125.08 695.12,-1130.44 695.77,-1124.11 691.69,-1125.08"/>
</g>
<!-- packages/web/src/config.ts&#45;&gt;packages/web/src/utils/api.ts -->
<g id="edge51" class="edge">
<title>packages/web/src/config.ts&#45;&gt;packages/web/src/utils/api.ts</title>
<path fill="none" stroke="#000000" stroke-width="2" stroke-opacity="0.200000" d="M552.03,-788.49C536.66,-789.73 519.72,-794.58 515.25,-809.34 511.48,-821.79 510.4,-828.81 519.25,-838.34 530.61,-850.58 545.37,-862.15 557.43,-870.74"/>
<polygon fill="#000000" fill-opacity="0.200000" stroke="#000000" stroke-width="2" stroke-opacity="0.200000" points="555.93,-872.26 562.06,-873.96 558.33,-868.81 555.93,-872.26"/>
</g>
<!-- packages/web/src/utils/api.ts&#45;&gt;packages/contracts/src/web/client&#45;core.ts -->
<g id="edge81" class="edge">
<title>packages/web/src/utils/api.ts&#45;&gt;packages/contracts/src/web/client&#45;core.ts</title>
<path fill="none" stroke="#000000" stroke-width="2" stroke-opacity="0.200000" d="M606.78,-889.26C617.53,-891.65 629.75,-895.43 639.75,-901.34 742.44,-962.04 829.71,-1080.63 859.8,-1124.5"/>
<polygon fill="#000000" fill-opacity="0.200000" stroke="#000000" stroke-width="2" stroke-opacity="0.200000" points="857.94,-1125.5 863.04,-1129.29 861.41,-1123.14 857.94,-1125.5"/>
</g>
<!-- packages/web/src/utils/api.ts&#45;&gt;packages/contracts/src/web/index.ts -->
<g id="edge80" class="edge">
<title>packages/web/src/utils/api.ts&#45;&gt;packages/contracts/src/web/index.ts</title>
<path fill="none" stroke="#000000" stroke-opacity="0.200000" d="M606.76,-885.7C618.72,-887.34 631.92,-891.51 639.75,-901.34 654.3,-919.61 635.86,-1091.25 647.75,-1111.34 651.85,-1118.28 658.24,-1123.8 665.1,-1128.12"/>
<polygon fill="none" stroke="#000000" stroke-opacity="0.200000" points="663.9,-1129.86 670.16,-1131.01 665.98,-1126.21 663.9,-1129.86"/>
</g>
<!-- packages/web/src/utils/api.ts&#45;&gt;packages/contracts/src/web/schemas.ts -->
<g id="edge82" class="edge">
<title>packages/web/src/utils/api.ts&#45;&gt;packages/contracts/src/web/schemas.ts</title>
<path fill="none" stroke="#000000" stroke-width="2" stroke-opacity="0.200000" d="M606.71,-885.75C618.65,-887.39 631.86,-891.56 639.75,-901.34 650.85,-915.11 638.52,-1045.25 647.75,-1060.34 660.49,-1081.16 720.42,-1110.94 757.78,-1127.99"/>
<polygon fill="#000000" fill-opacity="0.200000" stroke="#000000" stroke-width="2" stroke-opacity="0.200000" points="756.75,-1129.82 763.08,-1130.38 758.47,-1126 756.75,-1129.82"/>
</g>
<!-- packages/web/src/components/ProvenanceFooter.tsx&#45;&gt;node_modules/.pnpm -->
<g id="edge46" class="edge">
<title>packages/web/src/components/ProvenanceFooter.tsx&#45;&gt;node_modules/.pnpm</title>
<path fill="none" stroke="#000000" stroke-opacity="0.200000" d="M584.96,-710.78C595.94,-686.83 624.53,-622.11 639.75,-565.34 645.58,-543.6 633.14,-532.46 647.75,-515.34 676.44,-481.71 713.17,-517.64 742.25,-484.34 772.91,-449.23 784.29,-301.84 787.33,-251.38"/>
<polygon fill="none" stroke="#000000" stroke-opacity="0.200000" points="789.43,-251.51 787.68,-245.4 785.24,-251.27 789.43,-251.51"/>
</g>
<!-- packages/web/src/components/ProvenanceFooter.tsx&#45;&gt;packages/contracts/src/ethics&#45;core/index.ts -->
<g id="edge45" class="edge">
<title>packages/web/src/components/ProvenanceFooter.tsx&#45;&gt;packages/contracts/src/ethics&#45;core/index.ts</title>
<path fill="none" stroke="#000000" stroke-opacity="0.200000" d="M632.19,-726.88C635.01,-728.64 637.57,-730.77 639.75,-733.34 650.55,-746.06 635.84,-871.65 647.75,-883.34 692.32,-927.13 725.77,-888.34 788.25,-888.34 788.25,-888.34 788.25,-888.34 873,-888.34 985.71,-888.34 1014.95,-1074 1021.31,-1131.54"/>
<polygon fill="none" stroke="#000000" stroke-opacity="0.200000" points="1019.2,-1131.52 1021.91,-1137.28 1023.38,-1131.09 1019.2,-1131.52"/>
</g>
<!-- packages/web/src/components/AskPanel.tsx -->
<g id="node28" class="node">
<title>packages/web/src/components/AskPanel.tsx</title>
<g id="a_node28"><a xlink:href="packages/web/src/components/AskPanel.tsx" xlink:title="AskPanel.tsx">
<path fill="#bbfeff" stroke="black" d="M490.83,-714.59C490.83,-714.59 434.67,-714.59 434.67,-714.59 431.58,-714.59 428.5,-711.51 428.5,-708.43 428.5,-708.43 428.5,-702.26 428.5,-702.26 428.5,-699.18 431.58,-696.09 434.67,-696.09 434.67,-696.09 490.83,-696.09 490.83,-696.09 493.92,-696.09 497,-699.18 497,-702.26 497,-702.26 497,-708.43 497,-708.43 497,-711.51 493.92,-714.59 490.83,-714.59"/>
<text xml:space="preserve" text-anchor="start" x="436.5" y="-702.04" font-family="Helvetica,sans-Serif" font-size="9.00">AskPanel.tsx</text>
</a>
</g>
</g>
<!-- packages/web/src/components/AskPanel.tsx&#45;&gt;node_modules/.pnpm -->
<g id="edge34" class="edge">
<title>packages/web/src/components/AskPanel.tsx&#45;&gt;node_modules/.pnpm</title>
<path fill="none" stroke="#000000" stroke-opacity="0.200000" d="M478.32,-695.71C489.59,-687.33 504.39,-674.08 511.25,-658.34 522.62,-632.25 501.38,-424.49 519.25,-402.34 553.91,-359.39 588.03,-391.62 639.75,-372.34 687.62,-354.5 705.74,-356.07 742.25,-320.34 762.55,-300.48 776,-269.72 782.86,-250.88"/>
<polygon fill="#000000" fill-opacity="0.200000" stroke="#000000" stroke-opacity="0.200000" points="784.74,-251.84 784.74,-245.49 780.78,-250.46 784.74,-251.84"/>
</g>
<!-- packages/web/src/components/AskPanel.tsx&#45;&gt;packages/contracts/src/ethics&#45;core/index.ts -->
<g id="edge33" class="edge">
<title>packages/web/src/components/AskPanel.tsx&#45;&gt;packages/contracts/src/ethics&#45;core/index.ts</title>
<path fill="none" stroke="#000000" stroke-opacity="0.200000" d="M497.29,-710.85C502.74,-713.22 507.74,-716.58 511.25,-721.34 521.38,-735.07 513.52,-1012.27 519.25,-1028.34 556.24,-1132.12 587.58,-1200.34 697.75,-1200.34 697.75,-1200.34 697.75,-1200.34 873,-1200.34 921.02,-1200.34 937.5,-1214.93 980.88,-1194.34 994.63,-1187.81 1005.96,-1174.55 1013.37,-1163.94"/>
<polygon fill="none" stroke="#000000" stroke-opacity="0.200000" points="1015.06,-1165.18 1016.63,-1159.02 1011.56,-1162.86 1015.06,-1165.18"/>
</g>
<!-- packages/web/src/components/AskPanel.tsx&#45;&gt;packages/web/src/config.ts -->
<g id="edge28" class="edge">
<title>packages/web/src/components/AskPanel.tsx&#45;&gt;packages/web/src/config.ts</title>
<path fill="none" stroke="#000000" stroke-width="2" stroke-opacity="0.200000" d="M497.32,-711.42C502.62,-713.74 507.57,-716.94 511.25,-721.34 526.81,-739.95 502.84,-757.47 519.25,-775.34 525.54,-782.19 534.49,-785.98 543.54,-788.01"/>
<polygon fill="#000000" fill-opacity="0.200000" stroke="#000000" stroke-width="2" stroke-opacity="0.200000" points="542.91,-790.04 549.18,-788.96 543.61,-785.89 542.91,-790.04"/>
</g>
<!-- packages/web/src/components/AskPanel.tsx&#45;&gt;packages/web/src/data/examplePrompts.json -->
<g id="edge29" class="edge">
<title>packages/web/src/components/AskPanel.tsx&#45;&gt;packages/web/src/data/examplePrompts.json</title>
<path fill="none" stroke="#000000" stroke-width="2" stroke-opacity="0.200000" d="M478.24,-695.67C489.46,-687.28 504.24,-674.02 511.25,-658.34 525.69,-626.05 502.05,-530.26 519.25,-499.34 525.61,-487.91 536.67,-478.97 547.52,-472.4"/>
<polygon fill="#000000" fill-opacity="0.200000" stroke="#000000" stroke-width="2" stroke-opacity="0.200000" points="548.47,-474.28 552.68,-469.52 546.42,-470.62 548.47,-474.28"/>
</g>
<!-- packages/web/src/components/AskPanel.tsx&#45;&gt;packages/web/src/utils/api.ts -->
<g id="edge30" class="edge">
<title>packages/web/src/components/AskPanel.tsx&#45;&gt;packages/web/src/utils/api.ts</title>
<path fill="none" stroke="#000000" stroke-width="2" stroke-opacity="0.200000" d="M497.13,-710.98C502.59,-713.33 507.64,-716.66 511.25,-721.34 527.17,-741.98 507.12,-815.28 519.25,-838.34 526.49,-852.1 539.71,-863.19 551.83,-871.13"/>
<polygon fill="#000000" fill-opacity="0.200000" stroke="#000000" stroke-width="2" stroke-opacity="0.200000" points="550.38,-872.71 556.59,-874.08 552.59,-869.14 550.38,-872.71"/>
</g>
<!-- packages/web/src/components/AskPanel.tsx&#45;&gt;packages/web/src/utils/turnstile.ts -->
<g id="edge31" class="edge">
<title>packages/web/src/components/AskPanel.tsx&#45;&gt;packages/web/src/utils/turnstile.ts</title>
<path fill="none" stroke="#000000" stroke-width="2" stroke-opacity="0.200000" d="M497.05,-711.04C502.52,-713.39 507.59,-716.7 511.25,-721.34 523.55,-736.93 506.12,-795.44 519.25,-810.34 524.99,-816.85 533.17,-820.52 541.62,-822.5"/>
<polygon fill="#000000" fill-opacity="0.200000" stroke="#000000" stroke-width="2" stroke-opacity="0.200000" points="541.19,-824.55 547.46,-823.49 541.9,-820.41 541.19,-824.55"/>
</g>
<!-- packages/web/src/components/AskPanel.tsx&#45;&gt;packages/web/src/components/ProvenanceFooter.tsx -->
<g id="edge32" class="edge">
<title>packages/web/src/components/AskPanel.tsx&#45;&gt;packages/web/src/components/ProvenanceFooter.tsx</title>
<path fill="none" stroke="#000000" stroke-width="2" stroke-opacity="0.200000" d="M497.25,-709.72C503.91,-710.59 511.08,-711.53 518.32,-712.48"/>
<polygon fill="#000000" fill-opacity="0.200000" stroke="#000000" stroke-width="2" stroke-opacity="0.200000" points="517.6,-714.5 523.82,-713.19 518.14,-710.33 517.6,-714.5"/>
</g>
<!-- packages/web/src/components/BlogPostCard.tsx&#45;&gt;node_modules/.pnpm -->
<g id="edge36" class="edge">
<title>packages/web/src/components/BlogPostCard.tsx&#45;&gt;node_modules/.pnpm</title>
<path fill="none" stroke="#000000" stroke-opacity="0.200000" d="M390.36,-696.12C393.32,-694.26 396.01,-692.02 398.25,-689.34 407.03,-678.86 403.34,-641.7 406.25,-628.34 442.61,-461.16 386.71,-368.54 519.25,-260.34 554.44,-231.62 690.29,-231.47 754.39,-233.11"/>
<polygon fill="#000000" fill-opacity="0.200000" stroke="#000000" stroke-opacity="0.200000" points="754.28,-235.2 760.33,-233.27 754.39,-231 754.28,-235.2"/>
</g>
<!-- packages/web/src/components/BlogPostCard.tsx&#45;&gt;packages/web/src/types/blog.ts -->
<g id="edge35" class="edge">
<title>packages/web/src/components/BlogPostCard.tsx&#45;&gt;packages/web/src/types/blog.ts</title>
<path fill="none" stroke="#000000" stroke-opacity="0.200000" d="M390.19,-714.03C393.27,-716 396.03,-718.41 398.25,-721.34 414.63,-742.96 388.11,-945.18 406.25,-965.34 440.66,-1003.59 505.57,-1001.56 545.14,-995.92"/>
<polygon fill="none" stroke="#000000" stroke-opacity="0.200000" points="545.11,-998.05 550.72,-995.06 544.48,-993.89 545.11,-998.05"/>
</g>
<!-- packages/web/src/types/blog.ts&#45;&gt;packages/contracts/src/web/index.ts -->
<g id="edge79" class="edge">
<title>packages/web/src/types/blog.ts&#45;&gt;packages/contracts/src/web/index.ts</title>
<path fill="none" stroke="#000000" stroke-opacity="0.200000" d="M583.81,-998.97C591.8,-1021.09 614.01,-1076.34 647.75,-1111.34 654.12,-1117.95 662.24,-1123.64 670.08,-1128.23"/>
<polygon fill="none" stroke="#000000" stroke-opacity="0.200000" points="668.97,-1130.01 675.23,-1131.09 671.01,-1126.34 668.97,-1130.01"/>
</g>
<!-- packages/web/src/components/BlogProvenance.tsx&#45;&gt;node_modules/.pnpm -->
<g id="edge38" class="edge">
<title>packages/web/src/components/BlogProvenance.tsx&#45;&gt;node_modules/.pnpm</title>
<path fill="none" stroke="#000000" stroke-opacity="0.200000" d="M391.59,-664.77C394.11,-662.97 396.38,-660.85 398.25,-658.34 412.25,-639.6 389.62,-253.79 406.25,-237.34 454.6,-189.53 670.6,-216.39 754.64,-228.97"/>
<polygon fill="none" stroke="#000000" stroke-opacity="0.200000" points="754.14,-231.02 760.38,-229.84 754.77,-226.87 754.14,-231.02"/>
</g>
<!-- packages/web/src/components/BlogProvenance.tsx&#45;&gt;packages/web/src/types/blog.ts -->
<g id="edge37" class="edge">
<title>packages/web/src/components/BlogProvenance.tsx&#45;&gt;packages/web/src/types/blog.ts</title>
<path fill="none" stroke="#000000" stroke-opacity="0.200000" d="M391.56,-683.94C394.09,-685.73 396.36,-687.85 398.25,-690.34 416.01,-713.85 386.21,-933.75 406.25,-955.34 422.21,-972.54 488.34,-961.29 511.25,-966.34 523.42,-969.03 536.46,-973.17 547.79,-977.21"/>
<polygon fill="none" stroke="#000000" stroke-opacity="0.200000" points="546.82,-979.09 553.17,-979.18 548.26,-975.15 546.82,-979.09"/>
</g>
<!-- packages/web/src/components/Breadcrumb.tsx -->
<g id="node32" class="node">
<title>packages/web/src/components/Breadcrumb.tsx</title>
<g id="a_node32"><a xlink:href="packages/web/src/components/Breadcrumb.tsx" xlink:title="Breadcrumb.tsx">
<path fill="#bbfeff" stroke="black" d="M613.21,-528.59C613.21,-528.59 545.79,-528.59 545.79,-528.59 542.71,-528.59 539.62,-525.51 539.62,-522.43 539.62,-522.43 539.62,-516.26 539.62,-516.26 539.62,-513.18 542.71,-510.09 545.79,-510.09 545.79,-510.09 613.21,-510.09 613.21,-510.09 616.29,-510.09 619.38,-513.18 619.38,-516.26 619.38,-516.26 619.38,-522.43 619.38,-522.43 619.38,-525.51 616.29,-528.59 613.21,-528.59"/>
<text xml:space="preserve" text-anchor="start" x="547.62" y="-516.04" font-family="Helvetica,sans-Serif" font-size="9.00">Breadcrumb.tsx</text>
</a>
</g>
</g>
<!-- packages/web/src/components/Breadcrumb.tsx&#45;&gt;node_modules/.pnpm -->
<g id="edge39" class="edge">
<title>packages/web/src/components/Breadcrumb.tsx&#45;&gt;node_modules/.pnpm</title>
<path fill="none" stroke="#000000" stroke-opacity="0.200000" d="M619.58,-511C627.13,-507.81 634.36,-503.41 639.75,-497.34 649.78,-486.06 638.08,-475.93 647.75,-464.34 677.19,-429.05 712.77,-457.61 742.25,-422.34 784.93,-371.29 789.1,-286.73 788.81,-251.05"/>
<polygon fill="#000000" fill-opacity="0.200000" stroke="#000000" stroke-opacity="0.200000" points="790.91,-251.3 788.7,-245.34 786.71,-251.38 790.91,-251.3"/>
</g>
<!-- packages/web/src/components/Header.tsx&#45;&gt;node_modules/.pnpm -->
<g id="edge42" class="edge">
<title>packages/web/src/components/Header.tsx&#45;&gt;node_modules/.pnpm</title>
<path fill="none" stroke="#000000" stroke-opacity="0.200000" d="M464.4,-633.65C467.49,-590.25 482.2,-414.27 519.25,-376.34 557.67,-337.01 590.04,-371.84 639.75,-348.34 694.66,-322.39 748.53,-273.58 773.62,-249.12"/>
<polygon fill="#000000" fill-opacity="0.200000" stroke="#000000" stroke-opacity="0.200000" points="774.93,-250.77 777.73,-245.06 771.99,-247.78 774.93,-250.77"/>
</g>
<!-- packages/web/src/components/Header.tsx&#45;&gt;packages/web/src/components/Breadcrumb.tsx -->
<g id="edge40" class="edge">
<title>packages/web/src/components/Header.tsx&#45;&gt;packages/web/src/components/Breadcrumb.tsx</title>
<path fill="none" stroke="#000000" stroke-width="2" stroke-opacity="0.200000" d="M492.55,-641.24C499.64,-639.32 506.55,-636 511.25,-630.34 524.8,-614.05 505.67,-551.61 519.25,-535.34 522.45,-531.51 526.47,-528.54 530.89,-526.25"/>
<polygon fill="#000000" fill-opacity="0.200000" stroke="#000000" stroke-width="2" stroke-opacity="0.200000" points="531.66,-528.21 536.41,-523.98 530.06,-524.32 531.66,-528.21"/>
</g>
<!-- packages/web/src/components/ThemeToggle.tsx -->
<g id="node34" class="node">
<title>packages/web/src/components/ThemeToggle.tsx</title>
<g id="a_node34"><a xlink:href="packages/web/src/components/ThemeToggle.tsx" xlink:title="ThemeToggle.tsx">
<path fill="#bbfeff" stroke="black" d="M616.21,-559.59C616.21,-559.59 542.79,-559.59 542.79,-559.59 539.71,-559.59 536.62,-556.51 536.62,-553.43 536.62,-553.43 536.62,-547.26 536.62,-547.26 536.62,-544.18 539.71,-541.09 542.79,-541.09 542.79,-541.09 616.21,-541.09 616.21,-541.09 619.29,-541.09 622.38,-544.18 622.38,-547.26 622.38,-547.26 622.38,-553.43 622.38,-553.43 622.38,-556.51 619.29,-559.59 616.21,-559.59"/>
<text xml:space="preserve" text-anchor="start" x="544.62" y="-547.04" font-family="Helvetica,sans-Serif" font-size="9.00">ThemeToggle.tsx</text>
</a>
</g>
</g>
<!-- packages/web/src/components/Header.tsx&#45;&gt;packages/web/src/components/ThemeToggle.tsx -->
<g id="edge41" class="edge">
<title>packages/web/src/components/Header.tsx&#45;&gt;packages/web/src/components/ThemeToggle.tsx</title>
<path fill="none" stroke="#000000" stroke-width="2" stroke-opacity="0.200000" d="M492.56,-638.44C499.03,-636.55 505.63,-633.94 511.25,-630.34 536.43,-614.22 557.05,-585.71 568.56,-567.44"/>
<polygon fill="#000000" fill-opacity="0.200000" stroke="#000000" stroke-width="2" stroke-opacity="0.200000" points="570.28,-568.65 571.61,-562.43 566.69,-566.46 570.28,-568.65"/>
</g>
<!-- packages/web/src/components/ThemeToggle.tsx&#45;&gt;node_modules/.pnpm -->
<g id="edge50" class="edge">
<title>packages/web/src/components/ThemeToggle.tsx&#45;&gt;node_modules/.pnpm</title>
<path fill="none" stroke="#000000" stroke-opacity="0.200000" d="M622.63,-545.24C629.06,-542.81 635.09,-539.32 639.75,-534.34 652.14,-521.1 636.36,-508.45 647.75,-494.34 676.52,-458.73 713.31,-488.82 742.25,-453.34 767.79,-422.03 782.2,-297.01 786.7,-251.24"/>
<polygon fill="#000000" fill-opacity="0.200000" stroke="#000000" stroke-opacity="0.200000" points="788.78,-251.57 787.26,-245.4 784.6,-251.17 788.78,-251.57"/>
</g>
<!-- packages/web/src/components/ThemeToggle.tsx&#45;&gt;packages/web/src/theme.tsx -->
<g id="edge49" class="edge">
<title>packages/web/src/components/ThemeToggle.tsx&#45;&gt;packages/web/src/theme.tsx</title>
<path fill="none" stroke="#000000" stroke-width="2" stroke-opacity="0.200000" d="M622.83,-544.57C635.71,-542.81 649.73,-540.9 662.12,-539.2"/>
<polygon fill="#000000" fill-opacity="0.200000" stroke="#000000" stroke-width="2" stroke-opacity="0.200000" points="662.15,-541.32 667.81,-538.43 661.59,-537.16 662.15,-541.32"/>
</g>
<!-- packages/web/src/components/OpenPhilosophy.tsx -->
<g id="node35" class="node">
<title>packages/web/src/components/OpenPhilosophy.tsx</title>
<g id="a_node35"><a xlink:href="packages/web/src/components/OpenPhilosophy.tsx" xlink:title="no&#45;orphans">
<path fill="#ccffcc" stroke="orange" d="M389.08,-745.59C389.08,-745.59 304.42,-745.59 304.42,-745.59 301.33,-745.59 298.25,-742.51 298.25,-739.43 298.25,-739.43 298.25,-733.26 298.25,-733.26 298.25,-730.18 301.33,-727.09 304.42,-727.09 304.42,-727.09 389.08,-727.09 389.08,-727.09 392.17,-727.09 395.25,-730.18 395.25,-733.26 395.25,-733.26 395.25,-739.43 395.25,-739.43 395.25,-742.51 392.17,-745.59 389.08,-745.59"/>
<text xml:space="preserve" text-anchor="start" x="306.25" y="-733.04" font-family="Helvetica,sans-Serif" font-size="9.00" fill="orange">OpenPhilosophy.tsx</text>
</a>
</g>
</g>
<!-- packages/web/src/theme.tsx&#45;&gt;node_modules/.pnpm -->
<g id="edge78" class="edge">
<title>packages/web/src/theme.tsx&#45;&gt;node_modules/.pnpm</title>
<path fill="none" stroke="#000000" stroke-opacity="0.200000" d="M726.38,-526.58C732.41,-523.65 738.22,-519.68 742.25,-514.34 773.95,-472.37 784.77,-305.6 787.49,-251.43"/>
<polygon fill="#000000" fill-opacity="0.200000" stroke="#000000" stroke-opacity="0.200000" points="789.58,-251.62 787.77,-245.52 785.39,-251.42 789.58,-251.62"/>
</g>
<!-- packages/web/src/main.tsx -->
<g id="node37" class="node">
<title>packages/web/src/main.tsx</title>
<g id="a_node37"><a xlink:href="packages/web/src/main.tsx" xlink:title="main.tsx">
<path fill="#bbfeff" stroke="black" d="M79.83,-853.59C79.83,-853.59 38.17,-853.59 38.17,-853.59 35.08,-853.59 32,-850.51 32,-847.43 32,-847.43 32,-841.26 32,-841.26 32,-838.18 35.08,-835.09 38.17,-835.09 38.17,-835.09 79.83,-835.09 79.83,-835.09 82.92,-835.09 86,-838.18 86,-841.26 86,-841.26 86,-847.43 86,-847.43 86,-850.51 82.92,-853.59 79.83,-853.59"/>
<text xml:space="preserve" text-anchor="start" x="42.12" y="-841.04" font-family="Helvetica,sans-Serif" font-size="9.00">main.tsx</text>
</a>
</g>
</g>
<!-- packages/web/src/main.tsx&#45;&gt;node_modules/.pnpm -->
<g id="edge56" class="edge">
<title>packages/web/src/main.tsx&#45;&gt;node_modules/.pnpm</title>
<path fill="none" stroke="#000000" stroke-opacity="0.200000" d="M59.79,-834.72C58.05,-742.19 49.88,-13.34 226.25,-13.34 226.25,-13.34 226.25,-13.34 580.5,-13.34 652.55,-13.34 687.68,22.71 742.25,-24.34 771.58,-49.63 783.59,-171.94 787.08,-217.33"/>
<polygon fill="#000000" fill-opacity="0.200000" stroke="#000000" stroke-opacity="0.200000" points="784.97,-217.3 787.51,-223.13 789.16,-216.99 784.97,-217.3"/>
</g>
<!-- packages/web/src/main.tsx&#45;&gt;packages/web/src/App.tsx -->
<g id="edge53" class="edge">
<title>packages/web/src/main.tsx&#45;&gt;packages/web/src/App.tsx</title>
<path fill="none" stroke="#000000" stroke-width="2" stroke-opacity="0.200000" d="M64.79,-834.72C76.36,-811.44 106.02,-751.81 120.87,-721.94"/>
<polygon fill="#000000" fill-opacity="0.200000" stroke="#000000" stroke-width="2" stroke-opacity="0.200000" points="122.67,-723.05 123.46,-716.74 118.91,-721.18 122.67,-723.05"/>
</g>
<!-- packages/web/src/main.tsx&#45;&gt;packages/web/src/theme.tsx -->
<g id="edge54" class="edge">
<title>packages/web/src/main.tsx&#45;&gt;packages/web/src/theme.tsx</title>
<path fill="none" stroke="#000000" stroke-width="2" stroke-opacity="0.200000" d="M77.19,-853.96C163.62,-901.72 550.2,-1108 639.75,-1028.34 676.06,-996.05 693.36,-638.64 697.01,-552.8"/>
<polygon fill="#000000" fill-opacity="0.200000" stroke="#000000" stroke-width="2" stroke-opacity="0.200000" points="699.1,-553.02 697.25,-546.94 694.9,-552.85 699.1,-553.02"/>
</g>
<!-- packages/web/src/styles/global.css -->
<g id="node38" class="node">
<title>packages/web/src/styles/global.css</title>
<g id="a_node38"><a xlink:href="packages/web/src/styles/global.css" xlink:title="global.css">
<path fill="#ffffcc" stroke="black" d="M153.08,-1019.59C153.08,-1019.59 108.17,-1019.59 108.17,-1019.59 105.08,-1019.59 102,-1016.51 102,-1013.43 102,-1013.43 102,-1007.26 102,-1007.26 102,-1004.18 105.08,-1001.09 108.17,-1001.09 108.17,-1001.09 153.08,-1001.09 153.08,-1001.09 156.17,-1001.09 159.25,-1004.18 159.25,-1007.26 159.25,-1007.26 159.25,-1013.43 159.25,-1013.43 159.25,-1016.51 156.17,-1019.59 153.08,-1019.59"/>
<text xml:space="preserve" text-anchor="start" x="110" y="-1007.04" font-family="Helvetica,sans-Serif" font-size="9.00">global.css</text>
</a>
</g>
</g>
<!-- packages/web/src/main.tsx&#45;&gt;packages/web/src/styles/global.css -->
<g id="edge55" class="edge">
<title>packages/web/src/main.tsx&#45;&gt;packages/web/src/styles/global.css</title>
<path fill="none" stroke="#000000" stroke-width="2" stroke-opacity="0.200000" d="M60.94,-854C64.04,-884.1 74.9,-975.55 94,-997.34 94.27,-997.65 94.55,-997.95 94.84,-998.25"/>
<polygon fill="#000000" fill-opacity="0.200000" stroke="#000000" stroke-width="2" stroke-opacity="0.200000" points="93.28,-999.71 99.34,-1001.63 95.8,-996.35 93.28,-999.71"/>
</g>
<!-- packages/web/src/utils/blog.ts&#45;&gt;packages/web/src/utils/api.ts -->
<g id="edge84" class="edge">
<title>packages/web/src/utils/blog.ts&#45;&gt;packages/web/src/utils/api.ts</title>
<path fill="none" stroke="#000000" stroke-width="2" stroke-opacity="0.200000" d="M490.08,-909.23C505.97,-904.94 526.4,-899.42 543.62,-894.76"/>
<polygon fill="#000000" fill-opacity="0.200000" stroke="#000000" stroke-width="2" stroke-opacity="0.200000" points="544.13,-896.8 549.37,-893.21 543.03,-892.75 544.13,-896.8"/>
</g>
<!-- packages/web/src/utils/blog.ts&#45;&gt;packages/web/src/types/blog.ts -->
<g id="edge83" class="edge">
<title>packages/web/src/utils/blog.ts&#45;&gt;packages/web/src/types/blog.ts</title>
<path fill="none" stroke="#000000" stroke-opacity="0.200000" d="M476.75,-925.99C487.85,-934.1 504.35,-945.86 519.25,-955.34 530.52,-962.51 543.34,-969.96 554.17,-976.04"/>
<polygon fill="none" stroke="#000000" stroke-opacity="0.200000" points="553.03,-977.81 559.3,-978.9 555.08,-974.15 553.03,-977.81"/>
</g>
<!-- packages/web/src/utils/embedHeight.test.ts -->
<g id="node41" class="node">
<title>packages/web/src/utils/embedHeight.test.ts</title>
<g id="a_node41"><a xlink:href="packages/web/src/utils/embedHeight.test.ts" xlink:title="embedHeight.test.ts">
<path fill="#ddfeff" stroke="black" d="M505.08,-832.59C505.08,-832.59 420.42,-832.59 420.42,-832.59 417.33,-832.59 414.25,-829.51 414.25,-826.43 414.25,-826.43 414.25,-820.26 414.25,-820.26 414.25,-817.18 417.33,-814.09 420.42,-814.09 420.42,-814.09 505.08,-814.09 505.08,-814.09 508.17,-814.09 511.25,-817.18 511.25,-820.26 511.25,-820.26 511.25,-826.43 511.25,-826.43 511.25,-829.51 508.17,-832.59 505.08,-832.59"/>
<text xml:space="preserve" text-anchor="start" x="422.25" y="-820.04" font-family="Helvetica,sans-Serif" font-size="9.00">embedHeight.test.ts</text>
</a>
</g>
</g>
<!-- packages/web/src/utils/embedHeight.test.ts&#45;&gt;assert/strict -->
<g id="edge86" class="edge">
<title>packages/web/src/utils/embedHeight.test.ts&#45;&gt;assert/strict</title>
<path fill="none" stroke="#000000" stroke-dasharray="5,2" stroke-opacity="0.200000" d="M477.9,-813.79C489.24,-805.22 504.37,-791.53 511.25,-775.34 525.9,-740.87 510.82,-474.84 519.25,-438.34 529.25,-395.07 554.53,-348.8 568.63,-325.19"/>
<polygon fill="#000000" fill-opacity="0.200000" stroke="#000000" stroke-opacity="0.200000" points="570.35,-326.4 571.66,-320.18 566.76,-324.22 570.35,-326.4"/>
</g>
<!-- packages/web/src/utils/embedHeight.test.ts&#45;&gt;node:test -->
<g id="edge87" class="edge">
<title>packages/web/src/utils/embedHeight.test.ts&#45;&gt;node:test</title>
<path fill="none" stroke="#000000" stroke-dasharray="5,2" stroke-opacity="0.200000" d="M477.93,-813.81C489.29,-805.25 504.43,-791.55 511.25,-775.34 521.72,-750.45 502.32,-310.38 519.25,-289.34 525.48,-281.6 535.13,-277.66 544.84,-275.76"/>
<polygon fill="#000000" fill-opacity="0.200000" stroke="#000000" stroke-opacity="0.200000" points="545.09,-277.85 550.73,-274.91 544.49,-273.69 545.09,-277.85"/>
</g>
<!-- packages/web/src/utils/embedHeight.test.ts&#45;&gt;packages/web/src/utils/embedHeight.ts -->
<g id="edge85" class="edge">
<title>packages/web/src/utils/embedHeight.test.ts&#45;&gt;packages/web/src/utils/embedHeight.ts</title>
<path fill="none" stroke="#000000" stroke-width="2" stroke-opacity="0.200000" d="M503.85,-832.83C506.63,-834.64 509.15,-836.79 511.25,-839.34 528.62,-860.46 501.25,-879.76 519.25,-900.34 522.45,-904 526.39,-906.86 530.71,-909.1"/>
<polygon fill="#000000" fill-opacity="0.200000" stroke="#000000" stroke-width="2" stroke-opacity="0.200000" points="529.67,-910.94 536.01,-911.31 531.29,-907.06 529.67,-910.94"/>
</g>
<!-- packages/web/src/utils/turnstile.test.ts -->
<g id="node42" class="node">
<title>packages/web/src/utils/turnstile.test.ts</title>
<g id="a_node42"><a xlink:href="packages/web/src/utils/turnstile.test.ts" xlink:title="turnstile.test.ts">
<path fill="#ddfeff" stroke="black" d="M493.46,-894.59C493.46,-894.59 432.04,-894.59 432.04,-894.59 428.96,-894.59 425.88,-891.51 425.88,-888.43 425.88,-888.43 425.88,-882.26 425.88,-882.26 425.88,-879.18 428.96,-876.09 432.04,-876.09 432.04,-876.09 493.46,-876.09 493.46,-876.09 496.54,-876.09 499.62,-879.18 499.62,-882.26 499.62,-882.26 499.62,-888.43 499.62,-888.43 499.62,-891.51 496.54,-894.59 493.46,-894.59"/>
<text xml:space="preserve" text-anchor="start" x="433.88" y="-882.04" font-family="Helvetica,sans-Serif" font-size="9.00">turnstile.test.ts</text>
</a>
</g>
</g>
<!-- packages/web/src/utils/turnstile.test.ts&#45;&gt;assert/strict -->
<g id="edge89" class="edge">
<title>packages/web/src/utils/turnstile.test.ts&#45;&gt;assert/strict</title>
<path fill="none" stroke="#000000" stroke-dasharray="5,2" stroke-opacity="0.200000" d="M499.69,-878.74C504.2,-876.46 508.27,-873.41 511.25,-869.34 525.4,-850.02 513.92,-461.69 519.25,-438.34 529.14,-395.04 554.47,-348.78 568.6,-325.18"/>
<polygon fill="#000000" fill-opacity="0.200000" stroke="#000000" stroke-opacity="0.200000" points="570.32,-326.39 571.64,-320.17 566.73,-324.21 570.32,-326.39"/>
</g>
<!-- packages/web/src/utils/turnstile.test.ts&#45;&gt;node:test -->
<g id="edge90" class="edge">
<title>packages/web/src/utils/turnstile.test.ts&#45;&gt;node:test</title>
<path fill="none" stroke="#000000" stroke-dasharray="5,2" stroke-opacity="0.200000" d="M499.71,-878.75C504.21,-876.47 508.28,-873.42 511.25,-869.34 530.23,-843.3 499.08,-314.48 519.25,-289.34 525.47,-281.59 535.12,-277.65 544.83,-275.75"/>
<polygon fill="#000000" fill-opacity="0.200000" stroke="#000000" stroke-opacity="0.200000" points="545.08,-277.84 550.72,-274.9 544.48,-273.68 545.08,-277.84"/>
</g>
<!-- packages/web/src/utils/turnstile.test.ts&#45;&gt;packages/web/src/utils/turnstile.ts -->
<g id="edge88" class="edge">
<title>packages/web/src/utils/turnstile.test.ts&#45;&gt;packages/web/src/utils/turnstile.ts</title>
<path fill="none" stroke="#000000" stroke-width="2" stroke-opacity="0.200000" d="M496.43,-875.66C501.49,-873.79 506.58,-871.67 511.25,-869.34 528.61,-860.69 546.66,-848.11 559.69,-838.3"/>
<polygon fill="#000000" fill-opacity="0.200000" stroke="#000000" stroke-width="2" stroke-opacity="0.200000" points="560.85,-840.05 564.33,-834.73 558.29,-836.72 560.85,-840.05"/>
</g>
</g>
</svg>
